<svg width="194" height="196" viewBox="0 0 194 196" fill="none" xmlns="http://www.w3.org/2000/svg">
<path fill-rule="evenodd" clip-rule="evenodd" d="M20.927 55.1571C20.9032 55.043 20.9151 54.8694 21.0812 54.6745C21.3066 54.3987 21.9116 53.9505 22.8606 53.3704C26.0399 51.416 33.134 47.8081 41.6042 43.6949C57.0143 36.2127 76.9918 27.0531 86.2568 23.1075C88.4633 22.1708 90.0648 21.5264 90.8596 21.2637C91.2274 21.1437 91.4766 21.1032 91.5834 21.108C91.8918 21.1234 93.9915 21.8748 97.3132 23.1812C107.504 27.1862 129.569 36.3244 146.687 43.6973C156.071 47.7403 163.972 51.2567 167.625 53.0922C168.693 53.6307 169.405 54.0373 169.725 54.2751C170.105 54.5651 170.152 54.8813 170.14 55.018C170.128 55.2082 170.022 55.4983 169.725 55.8181C169.44 56.1272 168.907 56.5492 168.171 57.058C165.099 59.1657 158.194 62.9805 149.914 67.3089C137.209 73.953 121.276 81.8215 111.181 86.6373C105.522 89.3382 101.655 91.0703 101.181 91.1452C101.086 91.1594 100.884 91.1523 100.611 91.0798C100.089 90.9431 99.0452 90.5674 97.586 89.9909C92.2002 87.8546 80.9422 82.9342 68.6877 77.4492C52.3048 70.1132 34.1187 61.7703 25.7552 57.757C23.6792 56.7572 22.2082 56.0249 21.5201 55.6421C21.2829 55.5138 21.1287 55.4187 21.0693 55.3628C20.9626 55.2808 20.9388 55.1987 20.927 55.1571ZM168.835 54.8885C168.871 54.854 168.895 54.8255 168.871 54.8076C168.835 54.7862 168.835 54.8397 168.835 54.8885ZM21.6507 54.9931C21.6981 55.024 21.7574 55.0585 21.8167 55.0917C22.5047 55.4674 23.964 56.1842 26.04 57.1638C34.4153 61.1248 52.6487 69.356 69.0672 76.5992C81.3336 82.0094 92.5917 86.8679 97.9894 88.9756C99.1401 89.425 100.018 89.7483 100.576 89.9219C100.765 89.9825 100.979 90.0301 101.05 90.0432C101.406 89.954 102.853 89.2978 105.107 88.2481C112.557 84.778 128.394 76.9832 142.476 69.734C153.01 64.3048 162.56 59.1859 166.795 56.403C167.614 55.8704 168.218 55.4317 168.598 55.0953C168.017 54.7434 166.961 54.2073 165.526 53.5154C159.025 50.3865 144.837 44.2227 130.601 38.173C116.377 32.1316 102.106 26.2043 95.3439 23.5581C93.1966 22.714 91.8443 22.1957 91.5477 22.1553C91.5121 22.1648 91.3697 22.1969 91.2511 22.2338C90.5749 22.4454 89.2345 22.9732 87.372 23.7471C79.7322 26.9283 63.456 34.2393 48.9831 41.0403C38.1284 46.1402 28.2821 50.9524 23.8572 53.5225C22.8962 54.0789 22.1964 54.5271 21.8049 54.8492C21.7456 54.8944 21.6863 54.9467 21.6507 54.9931Z" fill="black"/>
<path fill-rule="evenodd" clip-rule="evenodd" d="M126.84 92.0666C128.003 91.0716 129.901 88.7332 130.126 88.4539C130.233 88.3231 130.364 88.234 130.541 88.1959C130.708 88.1614 131.063 88.209 131.479 88.48C132.131 88.9092 133.294 89.9506 134.207 90.5842C134.373 90.6971 134.563 90.8576 134.717 90.9527C135.192 89.9185 136.105 86.6172 136.77 85.3143C136.912 85.01 137.066 84.7912 137.197 84.6688C137.351 84.5202 137.505 84.4524 137.647 84.4263C137.944 84.3704 138.691 84.3882 139.451 84.3787C139.949 84.3728 140.447 84.3657 140.767 84.2741C140.767 83.5097 140.554 80.8243 140.317 78.1329C140.079 75.4533 139.818 72.7667 139.652 71.9238C139.344 71.7111 138.668 71.3413 137.695 70.8361C133.982 68.9103 126.022 65.1014 116.591 60.653C93.4576 49.7376 61.4629 34.9907 61.4629 34.9907C61.3087 34.9194 61.2376 34.7339 61.3087 34.577C61.3799 34.4201 61.5697 34.35 61.7239 34.4213C61.7239 34.4213 101.975 52.5728 124.93 63.3325C131.479 66.4067 136.627 68.8818 139.035 70.1526C139.759 70.5365 140.246 70.8195 140.459 70.9811C140.708 71.1654 140.791 71.3556 140.815 71.44C140.969 72.0332 141.301 75.029 141.574 78.0187C141.871 81.1916 142.084 84.3585 142.025 84.6985C141.977 84.922 141.859 85.1253 141.633 85.2846C141.467 85.4035 141.206 85.5033 140.886 85.5639C140.068 85.7185 138.656 85.6341 138.051 85.6816C138.015 85.7411 137.956 85.8231 137.92 85.898C137.197 87.3507 136.129 91.2142 135.69 91.8823C135.536 92.1141 135.322 92.2485 135.049 92.283C134.765 92.3174 134.314 92.195 133.816 91.8907C132.902 91.326 131.585 90.1301 130.85 89.6236C130.091 90.5342 128.145 92.7918 127.184 93.4301C126.378 93.9734 125.832 93.6417 125.69 93.121C125.618 92.8548 125.512 91.7302 125.429 90.205C125.227 86.6529 125.001 80.8219 124.823 79.1956C124.776 79.1433 124.657 79.0149 124.539 78.9222C124.207 78.6547 123.708 78.3254 123.068 77.9403C119.438 75.7648 111.323 71.9167 101.643 67.5301C78.8067 57.1817 47.2628 43.8757 44.8665 42.7701C44.7123 42.6988 44.6411 42.5133 44.7123 42.3564C44.7953 42.1995 44.9733 42.1306 45.1275 42.2019C47.8204 43.424 87.526 59.7448 110.173 70.1585C116.911 73.2588 122.154 75.8468 124.468 77.3483C125.073 77.7334 125.488 78.0603 125.713 78.3088C125.939 78.5561 126.034 78.7855 126.057 78.9555C126.247 80.4629 126.496 86.4864 126.71 90.1289C126.757 90.9194 126.805 91.5911 126.84 92.0666ZM134.777 90.9907C134.86 91.0395 134.919 91.0502 134.931 90.9848C134.931 90.9004 134.86 90.9289 134.777 90.9907Z" fill="black"/>
<path fill-rule="evenodd" clip-rule="evenodd" d="M25.5536 143.74C25.613 143.785 25.7553 143.883 25.8858 143.962C26.3722 144.246 27.167 144.638 28.2466 145.126C33.2884 147.43 44.2023 151.77 56.1959 156.389C69.6486 161.575 84.4655 167.106 93.8611 170.466C99.0452 172.32 102.557 173.521 103.221 173.59C103.257 173.583 103.518 173.525 103.743 173.448C104.384 173.233 105.345 172.822 106.59 172.249C112.747 169.422 125.476 162.711 138.11 155.805C150.744 148.893 163.284 141.786 168.978 138.163C170.152 137.419 171.03 136.826 171.552 136.413C171.742 136.267 171.92 136.083 171.967 136.045C172.039 135.812 172.05 135.047 172.062 133.849C172.11 129.92 171.872 121.696 171.517 111.99C170.639 88.1176 169.025 55.2929 169.025 55.2929C169.013 55.1205 169.144 54.9731 169.322 54.9648C169.488 54.9553 169.63 55.0884 169.642 55.2608C169.642 55.2608 171.445 88.0819 172.454 111.953C172.857 121.678 173.13 129.92 173.106 133.857C173.094 135.334 173.023 136.249 172.916 136.48C172.881 136.59 172.75 136.763 172.537 136.965C172.074 137.387 171.042 138.111 169.559 139.066C163.865 142.722 151.338 149.901 138.692 156.868C126.057 163.832 113.293 170.587 107.136 173.431C105.831 174.031 104.823 174.459 104.158 174.684C103.66 174.851 103.316 174.905 103.126 174.89C102.497 174.839 98.8318 173.633 93.4222 171.694C84.0148 168.324 69.2097 162.766 55.7451 157.539C43.7397 152.877 32.8257 148.474 27.7721 146.146C26.3959 145.511 25.4469 145.021 25.008 144.719C24.7826 144.562 24.6521 144.417 24.5928 144.322C24.5572 144.247 24.4979 144.113 24.4504 143.914C24.3555 143.496 24.2488 142.655 24.142 141.456C23.7387 137.155 23.2641 128.106 22.8133 117.412C21.7338 92.2391 20.7254 57.9451 20.9152 55.0397C20.9271 54.8673 21.0694 54.7365 21.2474 54.7472C21.4135 54.7579 21.544 54.9065 21.544 55.0777C21.3897 57.6502 22.3151 84.8246 23.3709 108.468C23.9759 122.114 24.6284 134.585 25.1504 140.47C25.2571 141.72 25.352 142.67 25.4469 143.264C25.4825 143.452 25.5299 143.653 25.5536 143.74Z" fill="black"/>
<path fill-rule="evenodd" clip-rule="evenodd" d="M100.706 90.6067C100.694 90.4343 100.836 90.2904 101.003 90.2857C101.18 90.2809 101.323 90.4176 101.323 90.59C101.323 90.59 101.774 101.622 102.248 115.676C102.426 120.966 102.616 126.684 102.77 132.403C102.913 138.122 103.019 143.842 103.126 149.134C103.387 163.194 103.529 174.234 103.529 174.234C103.529 174.406 103.399 174.55 103.221 174.555C103.055 174.56 102.912 174.423 102.901 174.251C102.901 174.251 102.474 163.218 101.987 149.164C101.809 143.874 101.619 138.157 101.465 132.438C101.311 126.718 101.204 120.999 101.097 115.707C100.836 101.647 100.706 90.6067 100.706 90.6067Z" fill="black"/>
<path fill-rule="evenodd" clip-rule="evenodd" d="M73.9785 142.633C74.109 142.547 74.5124 142.505 75.1293 142.579C76.7664 142.774 80.1829 143.56 83.5639 144.467C86.9567 145.376 90.314 146.408 91.8324 147.066C92.1883 147.22 92.4493 147.362 92.6035 147.475C92.7696 147.586 92.8526 147.7 92.9119 147.79C93.0306 148.008 93.173 148.704 93.2442 149.699C93.3747 151.4 93.4221 154.083 93.3746 156.524C93.3272 158.745 93.1967 160.77 92.995 161.7C92.9357 161.978 92.8645 162.182 92.8052 162.306C92.6985 162.492 92.5799 162.596 92.4731 162.654C92.4019 162.692 92.307 162.73 92.1765 162.744C92.046 162.759 91.8087 162.742 91.4765 162.665C90.5868 162.463 88.7836 161.852 86.672 161.064C82.8758 159.644 78.0594 157.662 75.8884 156.642C75.1529 156.294 74.6904 156.018 74.5954 155.911C74.5005 155.803 74.3581 155.474 74.2514 154.958C73.9785 153.594 73.6701 150.643 73.5396 147.995C73.4328 145.978 73.4447 144.136 73.6345 143.291C73.7056 142.931 73.8481 142.713 73.9785 142.633ZM75.3428 155.247C75.4258 155.292 75.6275 155.403 75.8173 155.494C76.9324 156.017 79.3169 156.973 81.9268 157.976C85.4501 159.323 89.3886 160.747 91.2511 161.266C91.4172 161.311 91.5833 161.35 91.7256 161.381C91.7493 161.316 91.7613 161.248 91.7731 161.184C91.9985 159.738 92.129 156.554 92.1408 153.687C92.1527 151.922 92.1172 150.279 92.0341 149.232C91.9985 148.837 91.9748 148.544 91.9273 148.402C91.8443 148.349 91.607 148.203 91.3697 148.095C89.8987 147.413 86.6246 146.326 83.3148 145.342C80.005 144.354 76.6477 143.47 75.0462 143.228C74.7852 143.19 74.5835 143.168 74.4293 143.166C74.3937 143.165 74.3463 143.157 74.3226 143.157C74.3108 143.182 74.2989 143.223 74.2989 143.253C74.2514 143.408 74.2158 143.626 74.1921 143.895C74.1209 144.831 74.1802 146.331 74.3107 147.947C74.5124 150.537 74.892 153.422 75.2004 154.75C75.236 154.946 75.3072 155.159 75.3428 155.247ZM74.3226 143.157C74.2989 143.157 74.2869 143.16 74.2869 143.174C74.2869 143.185 74.3107 143.164 74.3107 143.159C74.3107 143.158 74.3108 143.158 74.3226 143.157ZM74.3226 143.157C74.3226 143.152 74.3463 143.146 74.3344 143.14C74.3344 143.132 74.3226 143.141 74.3226 143.157Z" fill="black"/>
<path fill-rule="evenodd" clip-rule="evenodd" d="M62.1368 35.052L139.75 71.1568L141.515 84.3987L138.513 85.0092L134.869 91.7495L130.629 88.6963L126.676 92.9195L125.095 79.049L45.0555 42.5151L59.833 35.5055L62.1368 35.052Z" fill="black"/>
</svg>
