<svg width="187" height="194" viewBox="0 0 187 194" fill="none" xmlns="http://www.w3.org/2000/svg">
<g clip-path="url(#clip0_2_686)">
<path fill-rule="evenodd" clip-rule="evenodd" d="M95.6745 47.8294C95.5771 47.6802 95.6258 47.4834 95.7719 47.3901C95.918 47.2969 96.125 47.3423 96.2102 47.4915C96.6485 48.0598 97.1842 48.5946 97.7929 49.1064C98.1704 49.4261 98.5721 49.7229 98.9739 50.0088C99.3878 50.2904 99.814 50.5468 100.24 50.7867C100.52 50.9485 100.8 51.107 101.092 51.247C101.725 51.5523 102.358 51.7917 102.979 51.9049C103.661 52.0262 104.319 52.0393 104.952 51.8481C105.122 51.7827 105.305 51.8622 105.366 52.0256C105.439 52.1889 105.353 52.3746 105.195 52.4399C104.148 52.952 102.943 53.0218 101.713 52.7533C100.971 52.5943 100.228 52.3176 99.5339 51.9232C98.8765 51.5499 98.2556 51.0711 97.7077 50.5418C96.8433 49.7185 96.1615 48.7687 95.6745 47.8294Z" fill="black"/>
<path fill-rule="evenodd" clip-rule="evenodd" d="M110.917 48.9143C111.027 48.7775 111.222 48.756 111.368 48.8666C111.502 48.9772 111.526 49.178 111.404 49.3149C110.455 50.6065 109.919 52.1989 109.603 53.8968C109.335 55.3563 109.25 56.8937 109.225 58.3999C109.213 59.4444 109.213 60.4731 109.25 61.4479C109.274 63.0094 108.921 64.2834 107.959 65.171C106.961 66.1033 105.256 66.6314 102.517 66.5192C102.334 66.5192 102.2 66.3765 102.2 66.2005C102.2 66.0246 102.334 65.8818 102.517 65.8818C104.416 65.8025 105.731 65.4626 106.608 64.8975C107.764 64.1576 108.069 62.9815 107.959 61.5013C107.91 60.4994 107.874 59.4408 107.91 58.3673C107.959 56.7862 108.154 55.174 108.543 53.6643C109.006 51.8623 109.761 50.2123 110.917 48.9143Z" fill="black"/>
<path fill-rule="evenodd" clip-rule="evenodd" d="M93.4952 68.6941C93.3857 68.5534 93.4222 68.3534 93.5561 68.2479C93.7022 68.1423 93.897 68.1708 94.0066 68.3116C94.3718 68.6959 94.8345 69.0467 95.3336 69.3874C95.6502 69.5938 95.9667 69.7796 96.3076 69.9621C96.6363 70.138 96.9651 70.2939 97.306 70.4425C97.5251 70.541 97.7564 70.641 97.9756 70.7266C98.4626 70.9083 98.9374 71.0524 99.4366 71.1019C99.9357 71.1531 100.435 71.1458 100.934 70.9969C101.092 70.9276 101.275 71.0026 101.348 71.1644C101.421 71.326 101.348 71.5136 101.178 71.5829C100.228 72.1081 99.1322 72.2247 98.0365 72.04C97.5982 71.9651 97.1598 71.8348 96.7337 71.6471C96.1859 71.4033 95.6745 71.0716 95.2241 70.6952C94.4814 70.0921 93.9092 69.3832 93.4952 68.6941Z" fill="black"/>
<path fill-rule="evenodd" clip-rule="evenodd" d="M81.1261 48.9249C81.5522 47.7358 82.0391 45.8392 82.1244 45.3718C82.1731 45.1443 82.3557 44.9688 82.587 44.9317C87.2134 44.1633 91.5111 42.8898 95.4192 41.0658C99.4978 39.166 103.162 36.6668 106.377 33.5024C106.62 33.2661 106.997 33.2517 107.265 33.4692C107.265 33.4692 111.831 37.3031 115.021 40.3689C116.579 41.8691 117.809 43.2137 118.101 43.8736C118.308 44.3294 118.369 45.4017 118.137 46.956C117.784 49.394 116.798 53.1607 115.033 57.6017C112.89 62.9977 109.591 69.3957 104.916 75.619C101.47 80.1838 96.4053 81.7083 91.5476 80.6777C87.1038 79.7362 82.8183 76.6517 80.1277 71.7985C78.9346 69.6412 78.0215 67.6349 77.3275 65.8997C76.11 62.8865 75.5744 60.6904 75.4039 59.9432C73.5777 59.9257 71.995 59.1828 70.741 58.0514C68.6835 56.2051 67.5025 53.3028 67.5147 50.8047C67.5634 46.2163 70.5949 43.9227 73.8455 43.8739C76.6701 43.8315 79.7016 45.5077 81.1261 48.9249ZM76.0614 59.9185C76.2561 60.7355 76.8284 62.8195 77.9971 65.6287C78.7033 67.3308 79.6286 69.2984 80.8339 71.411C83.4271 75.9881 87.5178 78.8888 91.7424 79.737C96.2349 80.6388 100.886 79.1981 104.015 74.958C107.716 69.9648 110.504 64.8637 112.537 60.2752C114.875 54.9995 116.202 50.4032 116.713 47.4258C116.883 46.4939 116.956 45.7268 116.956 45.1549C116.969 44.8167 116.944 44.5657 116.883 44.4185C116.615 43.8291 115.483 42.6657 114.095 41.3244C111.539 38.8596 108.081 35.8875 106.864 34.8471C103.637 37.8992 99.9847 40.3275 95.9427 42.176C92.0224 43.9672 87.737 45.2139 83.1349 45.9674C82.8671 47.0066 82.1974 49.3834 81.7591 50.1726C81.6495 50.3854 81.5157 50.5203 81.4304 50.5852C81.2478 50.7103 81.0773 50.7236 80.9191 50.6844C80.773 50.6452 80.5539 50.5361 80.4565 50.1964C79.4216 46.6188 76.5483 44.8121 73.8577 44.8221C71.0332 44.8327 68.44 46.8418 68.3669 50.8169C68.3182 53.111 69.3774 55.7875 71.2401 57.5071C72.9446 59.0818 75.3308 59.8414 78.1676 58.754C78.338 58.6898 78.5207 58.7707 78.5816 58.9345C78.6546 59.0982 78.5693 59.2833 78.4111 59.3476C77.5953 59.6723 76.804 59.8556 76.0614 59.9185Z" fill="black"/>
<path fill-rule="evenodd" clip-rule="evenodd" d="M107.557 44.756C107.63 44.9196 107.545 45.105 107.387 45.1696C107.216 45.2343 107.034 45.154 106.973 44.9904C106.693 44.4605 106.218 43.8649 105.548 43.2575C105.207 42.9483 104.818 42.6498 104.367 42.3519C104.075 42.1552 103.759 41.9658 103.418 41.7739C103.101 41.5975 102.773 41.4159 102.419 41.2465C101.932 41.0141 101.409 40.7899 100.825 40.5958C100.301 40.42 99.741 40.2548 99.1323 40.1265C98.9496 40.1064 98.8279 39.9481 98.8522 39.7734C98.8644 39.5986 99.0227 39.4731 99.2053 39.4932C100.35 39.5256 101.372 39.6654 102.286 39.9179C103.016 40.1221 103.673 40.3876 104.246 40.7136C104.915 41.0999 105.475 41.5617 105.926 42.0326C106.839 42.983 107.326 43.9748 107.557 44.756Z" fill="black"/>
<path fill-rule="evenodd" clip-rule="evenodd" d="M113.401 44.5244C113.328 44.6836 113.133 44.752 112.975 44.6771C112.817 44.6022 112.744 44.4121 112.817 44.253C112.89 43.9158 113.133 43.4868 113.547 43.0636C113.742 42.8564 113.986 42.6665 114.253 42.5254C114.46 42.4219 114.68 42.355 114.911 42.3124C115.069 42.2816 115.227 42.2581 115.398 42.2589C115.8 42.2604 116.165 42.3022 116.518 42.4645C116.688 42.5002 116.81 42.6691 116.774 42.8413C116.737 43.0135 116.567 43.1244 116.396 43.0886C116.055 43.093 115.763 43.2461 115.447 43.3939C115.276 43.4728 115.118 43.5769 114.96 43.6641C114.85 43.723 114.728 43.7749 114.619 43.8277C114.387 43.9385 114.168 44.0263 113.973 44.1407C113.73 44.2867 113.511 44.3825 113.401 44.5244Z" fill="black"/>
<path fill-rule="evenodd" clip-rule="evenodd" d="M110.479 53.1854C110.443 53.014 110.552 52.8426 110.723 52.8027C110.893 52.7629 111.064 52.8696 111.112 53.0409C111.283 53.4716 111.514 53.9149 111.818 54.2958C111.928 54.4248 112.05 54.5297 112.172 54.6309C112.318 54.7547 112.5 54.8261 112.707 54.8728C112.902 54.9163 113.109 54.9428 113.377 54.9096C113.535 54.8885 113.706 54.8663 113.9 54.8162C114.302 54.7098 114.765 54.5567 115.3 54.2889C115.447 54.1885 115.641 54.224 115.739 54.3683C115.848 54.5128 115.812 54.7116 115.666 54.8121C115.264 55.1848 114.899 55.4642 114.558 55.6827C114.229 55.8876 113.913 56.0174 113.632 56.1054C113.182 56.2445 112.768 56.2459 112.415 56.1732C112.232 56.1364 112.062 56.0741 111.916 55.9922C111.563 55.8022 111.271 55.5374 111.064 55.2013C110.942 55.0119 110.832 54.8127 110.759 54.5948C110.601 54.1322 110.516 53.6445 110.479 53.1854Z" fill="black"/>
<path fill-rule="evenodd" clip-rule="evenodd" d="M17.5591 132.689C17.1768 132.053 16.4086 131.444 15.4979 130.744C13.6522 129.325 11.2246 127.613 9.67836 124.982C8.51932 123.009 7.84727 120.527 8.27339 117.271C8.63863 114.485 9.76723 112.562 11.2611 111.057C13.1141 109.193 15.549 107.989 17.7843 106.559C19.8589 105.232 21.7594 103.705 22.7504 101.145C23.8778 98.2295 22.9963 95.5983 21.875 92.8109C20.7976 90.1329 19.4912 87.3198 19.2477 84.0419C19.0748 81.7161 19.4303 79.158 20.7744 76.2532C22.1721 73.231 25.2608 70.9277 29.0387 68.703C33.3644 66.1536 38.6117 63.6815 43.0433 60.1546C46.0018 57.815 48.595 55.0073 50.3116 51.3836C51.6508 48.5595 52.3326 44.494 53.124 39.9137C54.098 34.4031 55.2302 28.1611 57.7991 22.3842C60.3923 16.527 64.4587 11.1482 71.2766 7.45584C78.764 3.40406 84.961 2.13799 89.9648 2.32957C99.9724 2.71248 105.256 8.90539 106.596 10.7212C115.654 5.69262 125.308 6.02581 133.331 9.8979C141.61 13.8919 148.16 21.6579 150.522 31.1728C152.324 38.4526 151.18 44.0301 148.513 47.6514C145.031 52.3853 138.956 53.834 133.234 51.3819C132.467 52.4542 129.837 56.3603 128.242 61.4456C127.171 64.8834 126.562 68.8624 127.341 72.8684C127.999 76.2101 130.166 78.8174 132.467 81.3293C134.878 83.9568 137.434 86.4804 138.688 89.5538C140.088 92.9646 139.942 97.0579 136.229 102.711C136.132 102.859 135.937 102.901 135.791 102.805C135.632 102.709 135.596 102.511 135.693 102.364C139.2 96.9578 139.382 93.0668 138.031 89.8228C136.789 86.8304 134.269 84.3934 131.907 81.8419C129.484 79.2335 127.244 76.5073 126.538 73.0247C125.71 68.8797 126.306 64.7552 127.414 61.1897C129.314 55.0212 132.71 50.5339 132.71 50.5339C132.832 50.3621 133.076 50.3036 133.27 50.393C138.664 52.8294 144.447 51.5443 147.71 47.0668C150.218 43.6227 151.216 38.3237 149.475 31.4302C147.174 22.2553 140.831 14.7801 132.82 10.9522C124.979 7.19955 115.532 6.96119 106.729 12.091C106.437 12.2619 106.06 12.1691 105.877 11.8815C105.877 11.8815 100.91 4.02446 89.9161 3.62239C85.0827 3.44608 79.1171 4.69881 71.9096 8.61525C65.384 12.1541 61.5124 17.3149 59.0166 22.9224C56.4964 28.5965 55.3885 34.7283 54.4267 40.14C53.5988 44.8533 52.8683 49.0305 51.4804 51.9347C49.6664 55.7378 46.9392 58.6888 43.8346 61.1393C39.3422 64.6921 34.0461 67.1858 29.6584 69.7493C26.1131 71.8228 23.168 73.9208 21.8483 76.7476C20.5943 79.4352 20.2497 81.8031 20.4019 83.959C20.6259 87.1127 21.8945 89.8163 22.9221 92.3959C24.1396 95.4541 25.0161 98.3479 23.7682 101.538C22.6774 104.327 20.6259 106.011 18.3565 107.449C16.1797 108.83 13.7995 109.976 11.9928 111.78C10.6341 113.138 9.6102 114.879 9.2693 117.403C8.8651 120.392 9.46164 122.678 10.5184 124.495C11.9842 127.015 14.3145 128.645 16.0713 130.01C17.2961 130.958 18.2482 131.809 18.5769 132.686C18.6536 132.894 18.6256 133.094 18.443 133.278C18.3005 133.422 17.8537 133.593 17.1537 133.715C15.09 134.078 10.4259 134.474 6.55676 136.05C4.00493 137.09 1.79399 138.64 1.00871 141.091C0.576509 142.441 0.917409 143.839 1.80738 145.217C3.33288 147.577 6.43501 149.857 10.2652 151.746C17.0538 155.096 26.1289 157.198 32.9504 156.203C33.1209 156.176 33.2913 156.296 33.3157 156.471C33.34 156.644 33.2183 156.808 33.0478 156.833C26.1058 157.88 16.8566 155.798 9.93038 152.422C5.94193 150.478 2.72535 148.098 1.13046 145.652C0.0858654 144.053 -0.27694 142.418 0.21979 140.843C1.06594 138.155 3.44 136.405 6.2268 135.254C10.1556 133.633 14.8953 133.197 16.993 132.82C17.1914 132.785 17.4008 132.731 17.5591 132.689Z" fill="black"/>
<path fill-rule="evenodd" clip-rule="evenodd" d="M68.1841 122.584C68.3181 122.429 69.3651 121.909 71.1304 121.164C76.049 119.081 86.6776 114.95 97.3427 110.924C108.02 106.899 118.722 102.979 123.811 101.308C125.138 100.875 126.087 100.591 126.574 100.491C126.806 100.442 126.964 100.435 127.049 100.445C128.218 100.578 150.059 104.428 166.02 107.401C172.692 108.643 178.329 109.735 181.008 110.329C182.03 110.556 182.663 110.734 182.822 110.815C183.077 110.954 183.345 111.232 183.54 111.662C183.82 112.301 184.015 113.363 184.112 114.597C184.27 116.754 184.161 119.461 183.917 121.196C183.796 122.064 183.613 122.711 183.455 122.999C183.406 123.084 183.284 123.234 183.029 123.372C182.749 123.529 182.128 123.777 181.215 124.094C178.098 125.182 171.438 127.187 163.537 129.467C144.544 134.94 118.429 142.013 117.297 142.104C116.287 142.185 101.64 139.762 88.9543 137.446C81.759 136.133 75.1968 134.859 72.1044 134.115C70.9843 133.844 70.2904 133.613 70.1443 133.492C69.1581 132.691 68.3059 130.506 67.8676 128.268C67.5997 126.849 67.4902 125.412 67.5998 124.318C67.685 123.548 67.8798 122.938 68.1841 122.584ZM182.335 122.23C182.408 122.056 182.456 121.783 182.517 121.445C182.712 120.344 182.846 118.641 182.858 116.952C182.858 115.516 182.785 114.09 182.578 113.061C182.505 112.722 182.42 112.431 182.323 112.207C182.274 112.108 182.262 112.016 182.189 111.984C182.067 111.918 181.556 111.802 180.728 111.616C178.049 111.015 172.424 109.914 165.777 108.649C149.962 105.635 128.364 101.699 126.952 101.514C126.903 101.521 126.696 101.557 126.501 101.604C125.99 101.733 125.186 101.975 124.139 102.31C119.05 103.946 108.337 107.791 97.6592 111.736C86.9698 115.683 76.3169 119.73 71.3861 121.774C69.779 122.44 68.7929 122.856 68.6711 122.996C68.4398 123.278 68.3059 123.771 68.2572 124.382C68.1476 125.424 68.2694 126.789 68.5494 128.136C68.9512 130.184 69.6938 132.203 70.6069 132.93C70.7287 133.03 71.3252 133.173 72.287 133.396C75.3673 134.113 81.9295 135.33 89.1126 136.588C101.701 138.79 116.201 141.128 117.2 141.04C118.198 140.953 138.786 135.253 156.609 130.123C166.678 127.226 175.858 124.512 180.131 123.061C181.227 122.69 181.982 122.409 182.335 122.23Z" fill="black"/>
<path fill-rule="evenodd" clip-rule="evenodd" d="M97.7446 102.716C97.9272 103.269 98.3411 104.199 98.2681 104.985C98.195 105.674 97.8176 106.29 96.7706 106.557C94.5061 107.128 91.8398 106.445 89.2709 105.268C85.095 103.353 81.1625 100.143 79.7624 99.3027C76.3657 97.2676 72.5184 97.3197 68.5738 99.0442C64.1057 101.001 59.5401 105.089 55.3642 110.758C50.1412 117.824 42.6903 130.532 37.6864 143.583C34.4845 151.918 32.2808 160.391 32.3295 167.622C32.3782 176.909 34.4845 183.262 38.7578 187.152C43.1773 191.187 49.8856 192.544 58.8827 191.868C63.1317 191.55 68.6956 190.283 74.2351 188.729C84.9489 185.723 95.5774 181.633 96.5758 181.129C96.5879 181.121 96.588 181.105 96.588 181.086C96.588 181.035 96.5758 180.979 96.5514 180.917C96.4905 180.714 96.3809 180.469 96.2348 180.172C95.6139 178.923 94.3722 176.872 93.2399 173.591C92.4607 171.337 91.7302 168.505 91.2798 164.952C91.1093 164.9 90.7197 164.789 90.318 164.72C88.0778 164.338 83.2079 163.979 77.9728 163.855C73.0785 163.74 67.8677 163.831 64.2152 164.311C64.0326 164.335 63.8744 164.213 63.85 164.038C63.8257 163.864 63.9474 163.704 64.1179 163.68C68.5008 163.07 75.1117 162.995 80.7608 163.178C85.1559 163.321 88.9787 163.624 90.7441 163.946C91.3163 164.053 91.6937 164.179 91.8519 164.287C92.0224 164.404 92.0833 164.547 92.1076 164.665C93.2277 173.339 96.04 177.666 97.0871 179.743C97.3306 180.213 97.4889 180.586 97.5376 180.872C97.635 181.412 97.4645 181.761 97.0141 181.992C96.0279 182.506 85.3263 186.709 74.5395 189.803C68.9269 191.414 63.29 192.72 58.9801 193.065C49.5568 193.814 42.532 192.321 37.8813 188.105C33.3766 184.031 31.0634 177.389 30.9903 167.629C30.9538 160.257 33.194 151.612 36.4812 143.123C41.5702 129.978 49.1673 117.203 54.4633 110.102C58.8218 104.29 63.57 100.127 68.1842 98.1422C72.4332 96.3127 76.5848 96.315 80.2251 98.5335C81.613 99.3771 85.4846 102.594 89.624 104.526C92.0102 105.64 94.4695 106.336 96.5758 105.82C97.221 105.664 97.4767 105.325 97.5132 104.91C97.6106 104.053 97.0263 103.014 96.9532 102.587C96.8923 102.318 96.9897 102.143 97.0871 102.056C97.1723 101.986 97.2819 101.934 97.4402 101.952C99.1203 102.14 100.472 102.662 101.604 103.374C103.564 104.614 104.855 106.435 106.072 108.057C106.182 108.198 106.157 108.398 106.011 108.504C105.865 108.61 105.67 108.583 105.561 108.442C104.562 107.132 103.515 105.679 102.079 104.547C100.946 103.657 99.5586 102.97 97.7446 102.716Z" fill="black"/>
<path fill-rule="evenodd" clip-rule="evenodd" d="M70.1929 148.033C70.2294 147.864 70.412 147.762 70.5825 147.808C70.7529 147.853 70.8503 148.027 70.8016 148.198C70.6312 148.974 70.3511 151.019 69.7059 153.58C69.4259 154.686 69.0728 155.887 68.6223 157.119C68.2205 158.249 67.7336 159.406 67.1492 160.536C66.7718 161.268 66.3456 161.987 65.8708 162.684C65.1038 163.838 64.2272 164.93 63.2167 165.903C61.7314 167.337 59.9904 168.51 57.9572 169.254C57.7868 169.319 57.6042 169.242 57.5433 169.078C57.4702 168.916 57.5555 168.729 57.7137 168.662C59.2721 167.967 60.5991 166.996 61.7557 165.867C62.9489 164.717 63.935 163.392 64.7994 161.998C65.2134 161.319 65.5908 160.624 65.956 159.926C66.5161 158.839 67.0153 157.744 67.4535 156.674C67.9405 155.492 68.3423 154.348 68.6954 153.29C69.4989 150.79 69.9494 148.789 70.1929 148.033Z" fill="black"/>
<path fill-rule="evenodd" clip-rule="evenodd" d="M71.3373 133.668C71.3129 133.494 71.4347 133.332 71.6051 133.308C71.7877 133.283 71.946 133.405 71.9704 133.578C72.1652 134.737 72.7008 137.409 73.3339 140.728C73.6261 142.215 73.9305 143.829 74.2471 145.496C74.4662 146.674 74.6853 147.876 74.8923 149.077C75.0993 150.285 75.2941 151.491 75.4889 152.666C75.8054 154.587 76.1098 156.421 76.3898 158.048C76.7916 160.392 77.1447 162.295 77.4247 163.378C77.4734 163.548 77.376 163.725 77.2055 163.774C77.0472 163.824 76.8647 163.727 76.816 163.559C76.2924 161.975 75.4767 158.618 74.6488 154.674C74.247 152.776 73.8331 150.745 73.4679 148.71C73.1027 146.665 72.7983 144.618 72.5182 142.71C71.9095 138.541 71.4834 135.042 71.3373 133.668Z" fill="black"/>
<path fill-rule="evenodd" clip-rule="evenodd" d="M91.6934 165.438C91.5108 165.415 91.3891 165.254 91.4134 165.081C91.4378 164.906 91.6082 164.784 91.7787 164.807C92.7526 164.927 94.6763 164.696 96.6486 163.812C98.0487 163.183 99.4731 162.221 100.593 160.808C101.786 159.315 103.625 157.339 105.5 154.664C106.827 152.78 108.154 150.548 109.286 147.884C109.432 147.542 109.785 147.245 110.26 147.126C110.917 146.96 111.806 147.134 112.391 147.975C112.999 148.861 113.291 150.692 112.001 154.043C110.832 157.058 109.152 159.559 108.288 161.615C107.813 162.744 107.569 163.709 107.983 164.541C108.142 164.86 108.434 165.096 108.799 165.278C109.335 165.551 110.029 165.7 110.783 165.76C112.585 165.905 114.716 165.54 116.128 164.884C118.186 163.934 119.744 163.041 120.937 162.249C122.703 161.082 123.701 160.135 124.419 159.557C124.857 159.206 125.211 158.978 125.539 158.876C126.392 158.621 128.011 158.981 128.461 160.217C128.778 161.058 128.583 162.41 126.854 164.303C125.6 165.679 123.981 166.844 122.179 167.806C119.671 169.15 116.786 170.105 114.034 170.723C113.864 170.763 113.693 170.657 113.644 170.486C113.608 170.314 113.718 170.143 113.888 170.102C116.566 169.442 119.354 168.449 121.789 167.085C123.47 166.136 124.979 165.008 126.148 163.677C127.146 162.54 127.56 161.684 127.585 161.037C127.621 159.975 126.416 159.715 125.868 159.894C125.527 160.002 125.198 160.314 124.699 160.751C124.005 161.358 123.056 162.204 121.582 163.21C120.365 164.046 118.77 164.992 116.664 166.004C115.081 166.756 112.707 167.204 110.686 167.061C108.872 166.931 107.375 166.28 106.79 165.135C106.364 164.298 106.352 163.362 106.632 162.319C107.241 160.054 109.383 157.186 110.808 153.58C111.453 151.956 111.697 150.755 111.684 149.879C111.672 148.813 111.27 148.329 110.808 148.264C110.686 148.248 110.576 148.256 110.479 148.289C110.43 148.306 110.382 148.311 110.357 148.347C109.42 150.474 108.348 152.33 107.265 153.952C105.025 157.295 102.699 159.642 101.275 161.357C100.033 162.853 98.4748 163.862 96.9529 164.505C94.8102 165.408 92.7404 165.592 91.6934 165.438Z" fill="black"/>
<path fill-rule="evenodd" clip-rule="evenodd" d="M118.32 173.501C118.161 173.558 117.979 173.468 117.918 173.301C117.857 173.135 117.954 172.953 118.125 172.898C121.473 171.68 124.565 170.04 127.207 168.449C129.192 167.254 130.908 166.079 132.26 165.101C134.049 163.814 135.194 162.875 135.425 162.659C135.766 162.354 135.997 162.051 136.095 161.765C136.144 161.631 136.18 161.507 136.107 161.416C136.022 161.306 135.864 161.25 135.657 161.217C135.34 161.166 134.926 161.186 134.427 161.29C133.989 161.38 133.295 161.771 132.442 162.279C131.042 163.107 129.277 164.247 127.548 165.125C126.392 165.718 125.235 166.189 124.237 166.381C124.066 166.419 123.896 166.309 123.859 166.138C123.823 165.966 123.932 165.795 124.103 165.759C125.04 165.529 126.087 165.02 127.159 164.408C128.826 163.454 130.519 162.242 131.87 161.364C132.844 160.727 133.66 160.271 134.159 160.146C135.011 159.939 135.669 159.944 136.144 160.065C136.582 160.175 136.898 160.391 137.105 160.649C137.349 160.964 137.458 161.363 137.398 161.811C137.325 162.352 136.984 163.001 136.326 163.624C136.083 163.848 134.902 164.856 133.027 166.171C131.639 167.149 129.849 168.299 127.779 169.438C125.028 170.951 121.789 172.432 118.32 173.501Z" fill="black"/>
<path fill-rule="evenodd" clip-rule="evenodd" d="M114.728 177.879C114.545 177.898 114.387 177.77 114.375 177.596C114.351 177.421 114.485 177.264 114.655 177.244C116.591 176.975 118.941 176.183 121.376 175.163C122.812 174.565 124.261 173.887 125.673 173.178C126.379 172.819 127.085 172.454 127.767 172.091C128.473 171.71 129.167 171.332 129.837 170.958C131.201 170.183 132.442 169.427 133.429 168.729C134.366 168.064 135.096 167.47 135.486 166.975C135.778 166.621 135.559 166.103 134.768 165.945C134.232 165.834 133.489 165.862 132.491 166.116C132.321 166.164 132.138 166.067 132.089 165.899C132.041 165.729 132.138 165.552 132.308 165.504C133.806 165.018 134.829 165.056 135.474 165.295C135.985 165.487 136.29 165.82 136.436 166.169C136.631 166.627 136.545 167.139 136.265 167.549C135.462 168.67 133.295 170.377 130.494 172.074C129.825 172.476 129.131 172.876 128.4 173.265C127.694 173.636 126.976 173.996 126.233 174.341C124.784 175.024 123.275 175.655 121.777 176.186C119.221 177.105 116.737 177.73 114.728 177.879Z" fill="black"/>
<path fill-rule="evenodd" clip-rule="evenodd" d="M96.7582 180.723C96.5877 180.649 96.5268 180.46 96.5998 180.3C96.6729 180.141 96.8555 180.07 97.026 180.144C98.1339 180.624 101.713 182.066 106.547 182.609C108.068 182.78 109.712 182.86 111.441 182.799C112.999 182.745 114.619 182.581 116.299 182.245C117.407 182.038 118.466 181.724 119.476 181.345C121.108 180.735 122.605 179.949 123.932 179.091C127.085 177.051 129.265 174.64 129.898 173.405C130.02 173.158 130.129 172.866 130.154 172.606C130.178 172.468 130.19 172.339 130.129 172.26C130.08 172.201 129.983 172.203 129.849 172.225C129.63 172.259 129.362 172.355 129.021 172.529C128.863 172.613 128.68 172.556 128.595 172.402C128.51 172.247 128.559 172.054 128.717 171.97C129.24 171.668 129.642 171.543 129.922 171.521C130.275 171.496 130.507 171.612 130.665 171.781C130.823 171.945 130.896 172.188 130.908 172.472C130.933 172.861 130.787 173.347 130.616 173.746C130.007 175.08 127.828 177.765 124.577 180.041C123.214 180.995 121.656 181.876 119.951 182.552C118.868 182.978 117.735 183.318 116.554 183.552C114.801 183.878 113.097 184.039 111.477 184.058C109.676 184.079 107.971 183.936 106.401 183.697C101.458 182.947 97.8782 181.267 96.7582 180.723Z" fill="black"/>
<path fill-rule="evenodd" clip-rule="evenodd" d="M116.396 141.587C116.372 141.412 116.493 141.251 116.664 141.227C116.847 141.203 117.005 141.324 117.029 141.498C117.029 141.498 117.601 144.388 118.222 148.093C118.466 149.485 118.709 150.99 118.928 152.502C119.135 154.015 119.306 155.531 119.452 156.935C119.866 160.668 120.122 163.602 120.122 163.602C120.146 163.777 120.024 163.938 119.854 163.962C119.683 163.986 119.513 163.864 119.488 163.691C119.488 163.691 118.941 160.798 118.308 157.095C118.064 155.703 117.808 154.198 117.601 152.686C117.382 151.174 117.212 149.658 117.053 148.255C116.64 144.52 116.396 141.587 116.396 141.587Z" fill="black"/>
<path fill-rule="evenodd" clip-rule="evenodd" d="M67.9893 123.628C67.831 123.549 67.7701 123.357 67.8432 123.2C67.9284 123.043 68.111 122.98 68.2693 123.059C69.2067 123.516 80.6754 125.705 92.1683 127.767C99.4854 129.079 106.802 130.336 111.453 131.032C114.022 131.419 115.726 131.659 116.08 131.588C120.487 130.695 125.052 129.616 129.642 128.455C136.484 126.722 143.351 124.782 149.779 122.836C167.043 117.604 181.093 112.368 182.639 111.437C182.797 111.344 182.992 111.391 183.077 111.541C183.175 111.691 183.126 111.887 182.98 111.98C181.434 112.938 167.421 118.473 150.12 123.933C143.704 125.959 136.825 127.981 129.971 129.739C125.369 130.92 120.767 131.969 116.335 132.855C116.104 132.901 115.337 132.862 114.168 132.707C110.93 132.279 104.16 131.095 96.7947 129.701C83.853 127.255 69.0485 124.17 67.9893 123.628Z" fill="black"/>
<path fill-rule="evenodd" clip-rule="evenodd" d="M115.678 132.253C115.666 132.077 115.799 131.927 115.982 131.917C116.153 131.907 116.311 132.042 116.323 132.217C116.323 132.217 116.542 133.423 116.737 134.989C116.81 135.574 116.895 136.205 116.92 136.841C116.956 137.478 116.944 138.114 116.932 138.704C116.92 140.28 116.834 141.504 116.834 141.504C116.846 141.68 116.7 141.83 116.53 141.84C116.347 141.85 116.201 141.714 116.189 141.54C116.189 141.54 115.97 140.331 115.775 138.767C115.702 138.183 115.629 137.552 115.592 136.915C115.544 136.279 115.556 135.643 115.568 135.053C115.58 133.476 115.678 132.253 115.678 132.253Z" fill="black"/>
<path fill-rule="evenodd" clip-rule="evenodd" d="M185.756 160.277C185.78 160.06 185.768 159.659 185.744 159.108C185.683 157.769 185.488 155.664 185.22 153.123C184.197 143.21 182.055 126.71 181.726 123.116C181.702 122.941 181.836 122.785 182.006 122.767C182.189 122.749 182.335 122.876 182.359 123.051C182.761 126.64 185.208 143.099 186.377 152.997C186.742 156.121 186.973 158.598 186.998 159.824C187.01 160.293 186.973 160.614 186.925 160.768C186.888 160.894 186.766 161.092 186.498 161.283C186.133 161.539 185.33 161.935 184.124 162.428C181.653 163.451 177.465 164.963 172.376 166.678C168.772 167.89 164.73 169.202 160.518 170.532C153.919 172.618 146.918 174.743 140.636 176.589C130.409 179.596 122.094 181.845 120.499 181.953C120.329 181.968 120.17 181.836 120.158 181.66C120.146 181.486 120.28 181.332 120.45 181.318C122.691 181.128 138.177 176.403 153.541 171.462C158.655 169.82 163.744 168.151 168.334 166.625C174.555 164.557 179.863 162.743 183.017 161.51C184.137 161.069 184.977 160.709 185.488 160.441C185.585 160.389 185.683 160.322 185.756 160.277Z" fill="black"/>
<path fill-rule="evenodd" clip-rule="evenodd" d="M145.348 125.127C143.826 124.074 141.452 122.982 138.554 121.873C135.328 120.64 131.481 119.401 127.463 118.217C114.655 114.438 100.179 111.268 99.0715 111.034C98.901 110.999 98.7793 110.831 98.8158 110.659C98.8523 110.486 99.0228 110.374 99.1932 110.409C100.313 110.623 114.899 113.483 127.792 117.085C131.858 118.22 135.754 119.435 139.017 120.656C142.109 121.813 144.629 122.988 146.2 124.1C146.285 124.156 146.383 124.255 146.48 124.423C146.614 124.641 146.784 125.103 146.979 125.782C147.624 127.979 148.671 132.673 149.816 138.459C151.837 148.684 154.174 162.331 155.441 171.543C155.465 171.716 155.343 171.879 155.161 171.904C154.99 171.929 154.832 171.808 154.808 171.634C153.59 163.808 151.496 152.784 149.585 143.389C148.075 135.981 146.675 129.591 145.835 126.608C145.628 125.886 145.469 125.377 145.348 125.127Z" fill="black"/>
<path fill-rule="evenodd" clip-rule="evenodd" d="M142.097 126.154C142.134 126.172 142.17 126.19 142.195 126.207C142.17 126.195 142.097 126.177 142.097 126.154ZM142.097 126.154C138.031 124.013 131.31 121.73 124.273 119.602C111.685 115.797 98.0733 112.539 96.3932 112.013C96.2227 111.962 96.1375 111.783 96.1862 111.615C96.2349 111.447 96.4175 111.352 96.588 111.403C98.2681 111.898 111.965 114.837 124.602 118.474C131.834 120.553 138.7 122.878 142.828 125.029C142.937 125.087 143.059 125.188 143.193 125.355C143.315 125.525 143.461 125.804 143.607 126.191C144.167 127.601 144.946 130.671 145.811 134.639C146.955 139.934 148.27 146.839 149.463 153.48C150.839 161.048 152.056 168.272 152.75 172.375C152.787 172.549 152.665 172.715 152.494 172.745C152.324 172.777 152.154 172.661 152.129 172.488C150.851 165.803 148.002 150.807 145.591 139.587C144.374 133.942 143.29 129.258 142.523 127.104C142.353 126.624 142.255 126.016 142.109 126.139C142.097 126.144 142.097 126.149 142.097 126.154Z" fill="black"/>
<path fill-rule="evenodd" clip-rule="evenodd" d="M145.031 134.063C143.935 129.222 143.022 125.885 142.511 125.618C131.213 119.673 99.12 112.508 96.4902 111.708C97.3668 111.379 98.2556 111.049 99.1322 110.722C100.922 111.081 137.337 118.647 145.81 124.643C146.151 124.879 147.003 128.231 148.087 133.203C150.315 143.471 153.529 160.654 155.124 171.588C154.223 171.87 153.334 172.151 152.433 172.431C151.009 164.581 147.551 145.283 145.031 134.063Z" fill="black"/>
<path fill-rule="evenodd" clip-rule="evenodd" d="M152.214 105.191C152.385 105.146 152.567 105.248 152.616 105.419C152.653 105.589 152.555 105.763 152.385 105.808C151.216 106.124 140.831 108.631 128.644 111.927C120.913 114.017 112.452 116.429 105.159 118.82C102.31 119.752 99.6316 120.677 97.2575 121.58C94.1529 122.756 91.5353 123.889 89.6848 124.955C88.7108 125.516 87.9438 126.051 87.4446 126.563C87.1889 126.838 86.9941 127.093 86.9332 127.346C86.2393 129.827 86.4828 135.59 87.3229 142.279C88.236 149.617 89.8917 158.057 91.9371 164.55C91.998 164.717 91.9005 164.897 91.7301 164.951C91.5596 165.005 91.3892 164.913 91.3284 164.746C89.1613 158.247 87.3351 149.784 86.3002 142.412C85.3384 135.534 85.0705 129.594 85.7401 127.029C85.9836 126.094 87.1281 124.987 89.0395 123.862C90.9388 122.753 93.605 121.558 96.7826 120.341C99.181 119.424 101.872 118.491 104.745 117.567C112.074 115.211 120.584 112.885 128.376 110.896C140.612 107.768 151.046 105.486 152.214 105.191Z" fill="black"/>
<path fill-rule="evenodd" clip-rule="evenodd" d="M90.2081 127.97C89.6968 130.07 89.9525 134.2 90.5004 138.955C91.7422 149.451 94.5667 162.939 94.9807 164.794C95.0294 164.967 94.9198 165.137 94.7493 165.177C94.5667 165.217 94.3963 165.11 94.3597 164.939C93.9093 163.083 90.8169 149.604 89.4168 139.09C88.7594 134.146 88.5037 129.848 89.0028 127.667C89.0515 127.477 89.1611 127.26 89.3681 127.036C89.6481 126.723 90.1716 126.352 90.8899 125.948C92.3874 125.118 94.8345 124.084 97.9391 122.94C100.995 121.812 104.696 120.566 108.726 119.289C114.606 117.427 121.205 115.49 127.56 113.683C142.085 109.552 155.343 106.115 155.952 105.893C156.11 105.831 156.293 105.913 156.354 106.078C156.427 106.242 156.341 106.426 156.171 106.489C155.574 106.721 142.365 110.428 127.877 114.757C121.558 116.646 114.996 118.657 109.128 120.545C105.122 121.835 101.445 123.062 98.4018 124.172C95.3703 125.276 92.9718 126.253 91.5108 127.048C91.0117 127.315 90.6342 127.553 90.3907 127.771C90.3055 127.842 90.2203 127.96 90.2081 127.97Z" fill="black"/>
<path fill-rule="evenodd" clip-rule="evenodd" d="M91.7301 165.123C91.7179 164.988 91.6935 164.853 91.6814 164.717C91.6814 164.694 91.657 164.671 91.6327 164.648C88.9299 156.338 86.848 144.825 86.1784 136.503C85.8375 132.322 85.8618 128.946 86.3367 127.187C88.2116 120.204 149.353 106.267 152.3 105.499C153.554 105.729 154.808 105.96 156.062 106.191C154.722 106.697 90.5613 123.833 89.6117 127.809C89.1612 129.667 89.2951 133.093 89.7456 137.143C90.9022 147.844 94.2137 162.898 94.6764 164.867C93.4467 165.156 92.3875 165.21 91.7301 165.123Z" fill="black"/>
<path fill-rule="evenodd" clip-rule="evenodd" d="M111.782 183.344C111.818 183.172 111.989 183.06 112.159 183.094C112.33 183.129 112.439 183.296 112.403 183.469C112.244 184.373 111.879 186.873 111.088 188.965C110.528 190.438 109.736 191.695 108.738 192.188C107.034 193.02 104.611 193.524 101.713 193.779C99.5705 193.968 97.1599 194.026 94.6032 193.99C92.4848 193.961 90.2568 193.871 88.0045 193.739C85.8252 193.612 83.6216 193.442 81.4301 193.271C78.0333 193.006 74.6853 192.726 71.5929 192.54C67.8065 192.315 64.4098 192.219 61.78 192.461C61.6096 192.48 61.4513 192.354 61.427 192.179C61.4026 192.004 61.5365 191.846 61.707 191.828C64.6776 191.456 68.6466 191.458 73.0417 191.626C76.6211 191.76 80.4804 191.994 84.3277 192.212C86.3487 192.327 88.3575 192.435 90.3298 192.528C93.5074 192.68 96.5511 192.779 99.3026 192.717C103.077 192.63 106.254 192.268 108.324 191.321C109.176 190.939 109.797 189.866 110.296 188.657C111.136 186.643 111.587 184.22 111.782 183.344Z" fill="black"/>
<path fill-rule="evenodd" clip-rule="evenodd" d="M61.7435 192.144C74.7218 190.244 95.3946 182.279 96.7947 181.561C97.1599 181.375 97.1356 181.027 96.8921 180.434C98.4018 181.126 104.428 183.745 112.098 183.406C111.806 184.878 110.869 190.649 108.531 191.755C100.07 195.752 73.3461 190.885 61.7435 192.144Z" fill="black"/>
<path fill-rule="evenodd" clip-rule="evenodd" d="M38.8184 187.882C38.9767 187.811 39.1715 187.882 39.2445 188.042C39.3054 188.203 39.2445 188.392 39.0741 188.464C38.3192 188.863 37.8079 189.26 37.5035 189.637C37.3331 189.843 37.2479 190.034 37.2844 190.214C37.3087 190.385 37.4792 190.5 37.6861 190.633C38.0636 190.869 38.6236 191.037 39.3541 191.186C39.8898 191.296 40.5229 191.387 41.2412 191.461C41.9351 191.532 42.7143 191.595 43.5787 191.625C44.6379 191.663 45.831 191.674 47.1459 191.612C47.3164 191.593 47.4747 191.719 47.499 191.894C47.5112 192.069 47.3894 192.226 47.2068 192.246C45.8919 192.476 44.6866 192.636 43.5909 192.712C42.69 192.777 41.8743 192.79 41.1316 192.75C40.3524 192.708 39.6585 192.607 39.0619 192.468C38.1488 192.251 37.467 191.938 37.0165 191.598C36.5052 191.21 36.2495 190.774 36.2252 190.33C36.2008 189.901 36.3591 189.435 36.8096 189.003C37.2235 188.615 37.8809 188.224 38.8184 187.882Z" fill="black"/>
<path fill-rule="evenodd" clip-rule="evenodd" d="M38.9523 188.173C41.1803 189.995 43.9196 191.228 47.1703 191.929C37.4183 193.002 34.1068 190.329 38.9523 188.173Z" fill="black"/>
<path fill-rule="evenodd" clip-rule="evenodd" d="M135.961 102.538C130.933 101.638 127.439 101.03 126.988 100.978C126.258 100.893 116.871 104.191 105.816 108.25C103.929 105.769 101.908 102.796 97.4035 102.311C96.7461 102.241 99.3271 105.528 96.673 106.189C90.8291 107.643 82.2216 100.261 79.9936 98.918C72.567 94.4345 63.022 99.5111 54.9136 110.43C47.8766 119.902 36.8097 139.489 32.999 156.518C19.7626 158.481 -1.91456 148.93 0.614143 140.966C3.03936 133.33 18.511 133.817 18.1458 132.848C16.9953 129.793 7.43201 127.395 8.77124 117.337C10.024 107.929 20.3372 108.855 23.2592 101.342C26.259 93.629 16.0761 87.7698 21.3112 76.5003C25.38 67.7425 44.3215 65.4732 50.8959 51.6591C55.4614 42.0589 52.6004 18.3355 71.593 8.03552C95.9304 -5.16571 106.413 11.5496 106.413 11.5496C124.553 1.00726 145.372 12.7614 149.998 31.3014C154.101 47.723 142.937 55.2944 133.076 50.8108C133.076 50.8108 124.736 61.79 126.939 72.9465C129.046 83.5961 146.115 86.9833 135.961 102.538ZM48.0226 58.9687C43.9928 63.0146 38.5264 65.9909 33.6321 68.9757C29.8458 71.2852 26.3881 73.599 24.1273 76.3283C21.3222 79.7157 20.28 83.7209 22.4824 89.0318C23.7888 92.0915 24.8224 94.6029 25.2583 96.8284C25.6199 98.6782 25.5639 100.316 24.8431 101.914C23.5903 104.695 20.459 107.327 14.5177 110.675C14.3059 110.789 14.228 111.053 14.3424 111.264C14.4581 111.475 14.7235 111.553 14.9341 111.439C21.3307 108.129 24.6739 105.388 26.0923 102.496C27.1904 100.258 27.1795 97.9106 26.477 95.115C25.9803 93.1458 25.1268 90.9433 24.098 88.3706C22.2158 83.7996 23.1228 80.3839 25.5054 77.4477C27.6385 74.8197 30.8928 72.558 34.4478 70.2479C39.3177 67.0765 44.7233 63.8175 48.6558 59.5694C48.814 59.396 48.814 59.1206 48.6436 58.9548C48.461 58.7891 48.1931 58.7953 48.0226 58.9687ZM31.6598 153.53C25.9912 155.177 12.1838 153 10.7849 145.787C9.65878 139.986 18.9749 137.098 19.0163 134.917C19.0248 134.464 2.33201 135.976 2.51098 142.945C2.63638 147.835 15.7328 155.506 29.5499 155.795C30.6006 155.817 32.6946 153.231 31.6598 153.53ZM148.793 42.2154C149.986 36.0937 148.574 29.6367 145.323 24.0653C143.229 20.4587 140.356 17.2162 136.947 14.6962C134.403 12.8097 131.542 11.3338 128.498 10.3847C121.911 8.33164 114.448 8.74463 107.143 12.9107C106.936 13.026 106.851 13.2906 106.973 13.5008C107.082 13.7112 107.35 13.7883 107.569 13.6729C113.596 10.5304 119.61 9.97554 125.089 11.164C129.021 12.016 132.662 13.7904 135.864 16.1553C139.09 18.5421 141.854 21.5326 143.948 24.8895C147.198 30.1156 148.83 36.1847 147.929 42.0665C147.892 42.303 148.051 42.5281 148.282 42.5692C148.525 42.6103 148.744 42.4517 148.793 42.2154ZM75.6594 59.6021C75.6594 59.6021 76.7064 64.8674 80.4806 71.6048C85.9714 81.4085 98.134 83.7709 104.465 75.2886C115.02 61.1423 118.381 46.1136 117.492 44.1461C116.603 42.1787 106.839 33.9673 106.839 33.9673C100.435 40.2388 92.2779 43.9287 82.672 45.4791C82.5137 46.2687 81.2476 50.9954 80.9676 50.0473C78.6543 42.2073 68.0623 42.4497 67.9406 50.8108C67.8797 54.7308 70.9234 59.7023 75.6594 59.6021ZM104.647 12.0186C103.04 9.61264 100.338 7.651 97.0139 6.3704C95.1147 5.63789 93.0206 5.11923 90.8169 4.89203C88.7472 4.67863 86.5923 4.72858 84.4617 5.01492C81.345 5.43164 78.2648 6.3853 75.4524 7.86777C75.2333 7.97174 75.148 8.23168 75.2454 8.44786C75.355 8.66404 75.6107 8.75519 75.8298 8.6511C78.6179 7.44272 81.625 6.80954 84.62 6.58282C86.6532 6.42892 88.6742 6.49362 90.6222 6.69926C92.6797 6.91653 94.6642 7.29738 96.4782 7.88121C99.6193 8.89013 102.273 10.4263 103.941 12.5289C104.087 12.7231 104.355 12.7665 104.55 12.6257C104.745 12.4849 104.794 12.2129 104.647 12.0186Z" fill="black"/>
<path fill-rule="evenodd" clip-rule="evenodd" d="M156.11 0.225663C156.171 0.0574704 156.341 -0.0374194 156.512 0.0139595C156.682 0.0654595 156.78 0.243729 156.731 0.412043C156.731 0.412043 156.536 1.59422 156.22 3.21023C156.11 3.78473 155.988 4.41327 155.83 5.05575C155.684 5.65751 155.501 6.26633 155.331 6.86967C155.063 7.8432 154.795 8.77432 154.637 9.59614C154.625 9.77136 154.467 9.90029 154.296 9.88405C154.113 9.86769 153.992 9.71237 154.004 9.53715C154.004 8.67425 154.065 7.67307 154.199 6.63968C154.284 6.00544 154.381 5.36259 154.527 4.74665C154.686 4.09302 154.88 3.47306 155.075 2.90983C155.611 1.33272 156.11 0.225663 156.11 0.225663Z" fill="black"/>
<path fill-rule="evenodd" clip-rule="evenodd" d="M160.566 15.4187C160.396 15.4729 160.213 15.3812 160.152 15.2139C160.103 15.0465 160.201 14.8666 160.359 14.8123C160.359 14.8123 161.418 14.3041 162.879 13.7892C163.415 13.6003 163.999 13.4064 164.62 13.2619C165.205 13.1209 165.826 13.0306 166.41 12.964C167.506 12.8406 168.504 12.8337 169.21 12.9477C169.381 12.9591 169.515 13.1109 169.502 13.2865C169.49 13.4619 169.344 13.5953 169.161 13.5839C168.748 13.6006 168.224 13.707 167.652 13.8409C167.165 13.9518 166.653 14.0949 166.118 14.2398C165.777 14.3317 165.448 14.4297 165.095 14.5147C164.754 14.6007 164.401 14.6755 164.06 14.747C163.573 14.8507 163.098 14.9404 162.672 15.0228C161.43 15.2582 160.566 15.4187 160.566 15.4187Z" fill="black"/>
</g>
<defs>
<clipPath id="clip0_2_686">
<rect width="187" height="194" fill="white"/>
</clipPath>
</defs>
</svg>
