<svg width="134" height="194" viewBox="0 0 134 194" fill="none" xmlns="http://www.w3.org/2000/svg">
<g clip-path="url(#clip0_2_887)">
<path fill-rule="evenodd" clip-rule="evenodd" d="M50.2896 58.6319C50.1712 58.501 50.1809 58.2986 50.3128 58.1803C50.4447 58.0621 50.6474 58.0724 50.7671 58.2034C51.9296 59.3324 53.1056 59.8649 54.2046 59.9985C55.0558 60.1019 55.8483 59.9217 56.5663 59.5607C57.1122 59.2862 57.6202 58.9164 58.0549 58.4448C58.3407 58.135 58.6032 57.7952 58.8279 57.4183C59.3677 56.5102 59.7206 55.4351 59.7621 54.2624C59.7572 54.086 59.8976 53.9388 60.0747 53.9339C60.2518 53.9291 60.3995 54.0683 60.4044 54.2446C60.507 55.3433 60.3617 56.3996 60.0283 57.3521C59.7829 58.0523 59.4287 58.6894 58.994 59.2399C58.4872 59.8811 57.8669 60.406 57.1708 60.7545C56.2159 61.2319 55.1205 61.4006 54.008 61.1612C52.7515 60.8913 51.4607 60.1011 50.2896 58.6319Z" fill="black"/>
<path fill-rule="evenodd" clip-rule="evenodd" d="M45.991 37.267C45.886 37.1252 45.9153 36.9248 46.0582 36.8198C46.2011 36.7146 46.4026 36.7444 46.5076 36.8863C47.6225 38.2368 48.3796 39.9916 48.7411 41.9755C48.9548 43.1492 49.0378 44.4019 48.9609 45.6813C48.8876 46.8849 48.6678 48.1108 48.3442 49.3208C47.8716 51.0838 47.1511 52.8033 46.2511 54.3966C46.173 54.5544 45.9788 54.6185 45.8213 54.5396C45.6625 54.4607 45.5978 54.2684 45.6772 54.1106C46.1009 53.1434 46.4453 52.1376 46.731 51.1145C47.0168 50.0941 47.2281 49.0592 47.3795 48.0277C47.4821 47.3301 47.5492 46.6354 47.5981 45.9492C47.6481 45.2449 47.6762 44.5505 47.6677 43.8701C47.6543 42.9171 47.5822 41.9952 47.4259 41.1187C47.1682 39.6739 46.7176 38.3574 45.991 37.267Z" fill="black"/>
<path fill-rule="evenodd" clip-rule="evenodd" d="M43.8236 51.2632C42.6684 51.659 40.1919 51.8971 38.039 50.62C36.631 49.7849 35.3622 48.3037 34.6857 45.8012C34.0336 43.3374 34.4842 41.148 35.5344 39.5611C36.8533 37.5672 39.1136 36.5246 41.3495 36.9305C42.5756 37.1682 43.677 37.8525 44.5783 38.8363C45.731 40.0954 46.5687 41.8343 46.9497 43.6224C47.658 46.9438 46.813 50.3936 43.8236 51.2632ZM43.6282 50.6537C46.1877 49.7764 46.6664 46.7181 45.9301 43.8599C45.593 42.5536 44.9947 41.2856 44.1972 40.2667C43.3681 39.2071 42.3228 38.4191 41.1138 38.215C39.381 37.9005 37.669 38.7576 36.6249 40.2874C35.7213 41.6118 35.3012 43.4375 35.7896 45.5289C36.2903 47.7319 37.3271 49.074 38.5201 49.8544C40.3811 51.0714 42.5866 50.9573 43.6282 50.6537Z" fill="black"/>
<path fill-rule="evenodd" clip-rule="evenodd" d="M61.6193 49.1199C59.5373 50.041 57.222 49.9415 55.2205 48.9786C53.3607 48.0841 51.7793 46.4355 50.8952 44.1569C50.0245 41.8794 50.0587 39.4371 50.8073 37.4304C51.6853 35.074 53.539 33.3285 55.991 33.0119C60.6778 32.4772 63.8101 35.4644 64.9922 39.1045C66.2719 43.0463 65.2364 47.6886 61.6193 49.1199ZM61.3702 48.5305C64.5489 47.1238 65.2205 42.9373 63.9664 39.4522C62.8539 36.3572 60.1735 33.7774 56.1571 34.3268C54.1874 34.5664 52.7428 36.0055 52.0064 37.8848C51.3214 39.631 51.2322 41.7619 51.9429 43.7752C52.6549 45.8231 54.0055 47.3312 55.6235 48.1859C57.3893 49.1188 59.4652 49.284 61.3702 48.5305Z" fill="black"/>
<path fill-rule="evenodd" clip-rule="evenodd" d="M46.4306 43.3664C46.2792 43.4572 46.0814 43.4079 45.991 43.2567C45.8994 43.1054 45.9483 42.9088 46.1009 42.818C46.5161 42.4523 46.9203 42.1457 47.3746 41.9056C47.6945 41.7364 48.0267 41.6042 48.3698 41.53C48.7215 41.4538 49.0781 41.4408 49.4334 41.4598C49.9634 41.4885 50.4629 41.5954 50.9782 41.7513C51.154 41.7721 51.281 41.9312 51.2603 42.1065C51.2383 42.2818 51.0783 42.4071 50.9025 42.3863C50.425 42.4143 49.9854 42.5137 49.5262 42.6159C49.282 42.6704 49.0451 42.743 48.7997 42.8022C48.6397 42.8405 48.4785 42.8719 48.3149 42.9046C48.0084 42.9661 47.7018 43.0169 47.3843 43.0986C47.0681 43.1804 46.7579 43.2491 46.4306 43.3664Z" fill="black"/>
<path d="M57.8295 41.9822C58.8511 41.734 59.4446 40.5754 59.155 39.3944C58.8654 38.2134 57.8024 37.4572 56.7807 37.7054C55.7591 37.9536 55.1657 39.1122 55.4553 40.2932C55.7449 41.4742 56.8078 42.2304 57.8295 41.9822Z" fill="black"/>
<path d="M42.6856 44.066C43.4984 43.8685 43.9705 42.9468 43.7401 42.0073C43.5097 41.0678 42.6641 40.4662 41.8513 40.6637C41.0386 40.8611 40.5665 41.7828 40.7969 42.7223C41.0273 43.6619 41.8729 44.2634 42.6856 44.066Z" fill="black"/>
<path fill-rule="evenodd" clip-rule="evenodd" d="M101.441 86.3238C101.583 86.2115 101.711 86.0423 101.832 85.8446C102.071 85.4529 102.263 84.9543 102.381 84.4446C102.501 83.9262 102.551 83.3975 102.488 82.9608C102.445 82.6707 102.373 82.4195 102.191 82.2918C101.687 81.936 100.966 82.1504 100.235 82.5001C99.0245 83.0797 97.8058 84.122 97.3002 84.627C97.1769 84.7545 96.9742 84.7589 96.846 84.6369C96.7177 84.5148 96.7128 84.3123 96.8362 84.1848C97.437 83.5338 99.033 82.0791 100.489 81.5123C101.309 81.1926 102.093 81.1683 102.693 81.5582C102.988 81.7509 103.202 82.0741 103.329 82.4883C103.509 83.0745 103.502 83.8688 103.351 84.6488C103.206 85.3967 102.924 86.1275 102.568 86.6468C102.331 86.9947 102.052 87.2494 101.765 87.394C101.51 87.5214 101.238 87.4954 100.953 87.3261C100.823 87.2491 100.682 87.1236 100.524 87.0115C100.458 86.9646 100.393 86.8967 100.305 86.9181C100.232 86.9356 100.165 86.999 100.078 87.0882C99.9416 87.2283 99.7987 87.4316 99.6387 87.7093C99.2126 88.4389 98.7265 91.0228 95.6785 95.138C95.0692 95.9599 94.3573 96.8414 93.5195 97.7759C92.5121 98.9001 91.319 100.099 89.922 101.38C89.1185 102.106 84.1411 106.815 80.3995 110.294C78.3394 112.211 76.6506 113.754 76.2476 114.079C76.1108 114.192 75.9081 114.175 75.7945 114.04C75.6797 113.904 75.6981 113.702 75.8336 113.589C76.1304 113.331 77.1402 112.333 78.4847 110.998C82.1238 107.387 88.1831 101.316 89.0648 100.469C90.408 99.1959 91.5425 97.9981 92.5182 96.8941C93.7967 95.4485 94.7908 94.1546 95.5662 93.0115C97.7667 89.7736 98.2417 87.7384 98.6252 87.1109C99.1796 86.2099 99.6754 85.8971 100.055 85.8173C100.508 85.7223 100.894 85.893 101.216 86.1442C101.282 86.1964 101.373 86.2692 101.441 86.3238Z" fill="black"/>
<path fill-rule="evenodd" clip-rule="evenodd" d="M94.9224 82.5617C94.8296 82.7117 94.6317 82.758 94.4803 82.6651C94.3301 82.5722 94.2825 82.375 94.3765 82.2249C94.8528 81.2616 95.5488 80.509 96.3548 79.9839C96.9568 79.5925 97.6199 79.3357 98.2756 79.2246C98.8203 79.132 99.3625 79.145 99.8582 79.2462C101.204 79.5206 102.252 80.3603 102.448 81.6983C102.489 81.87 102.382 82.0427 102.21 82.0838C102.038 82.1248 101.865 82.0189 101.823 81.8472C101.639 81.3196 101.265 80.9705 100.808 80.7347C100.375 80.5105 99.8522 80.4406 99.2953 80.4551C99.045 80.4615 98.791 80.4953 98.5309 80.5373C98.1548 80.5978 97.7725 80.6868 97.394 80.8267C97.0252 80.9627 96.6601 81.1239 96.3108 81.3419C95.8028 81.6598 95.3217 82.0466 94.9224 82.5617Z" fill="black"/>
<path fill-rule="evenodd" clip-rule="evenodd" d="M92.2787 82.4902C92.225 82.6583 92.0442 82.7514 91.8745 82.6979C91.706 82.6444 91.6119 82.4644 91.6657 82.2963C91.7658 81.8171 92.1126 81.1061 92.6475 80.3804C92.9174 80.0138 93.2373 79.6524 93.5975 79.3221C93.9578 78.992 94.3583 78.6965 94.7845 78.472C95.0898 78.3114 95.4097 78.1905 95.7309 78.1104C96.1693 78.0018 96.6101 77.9547 97.0424 78.0126C97.918 78.1295 98.7703 78.5769 99.4444 79.6168C99.5543 79.7553 99.5311 79.9564 99.3919 80.0658C99.2527 80.1752 99.05 80.1516 98.9401 80.0132C98.0169 79.0364 97.0302 78.9922 96.1033 79.333C95.8701 79.4189 95.643 79.5319 95.4134 79.6527C95.0654 79.8372 94.7222 80.0505 94.3974 80.2869C93.8637 80.6769 93.3728 81.0996 92.9955 81.5171C92.6609 81.8874 92.3984 82.219 92.2787 82.4902Z" fill="black"/>
<path fill-rule="evenodd" clip-rule="evenodd" d="M40.0708 117.82C39.9206 117.726 39.8754 117.529 39.9695 117.379C40.0635 117.23 40.2625 117.185 40.4127 117.278C41.6363 118.02 43.9638 119.175 48.2257 117.814C50.9379 116.949 54.4133 115.081 58.8619 111.487C61.7096 109.207 64.5745 107.189 67.366 105.179C69.2747 103.803 71.1467 102.429 72.9516 100.966C75.8738 98.5951 78.6214 95.9931 81.0148 92.7246C83.5145 89.3444 86.1449 83.2569 89.4286 80.1545C91.292 78.393 93.3607 77.5585 95.7028 78.5425C95.8677 78.609 95.9471 78.7956 95.8799 78.9591C95.814 79.1226 95.6259 79.2015 95.461 79.135C93.3802 78.3253 91.5961 79.1479 89.9976 80.737C88.4455 82.2806 87.073 84.5389 85.7871 86.8302C84.4414 89.227 83.1909 91.6599 81.9612 93.4013C79.5495 96.7959 76.786 99.5361 73.7966 101.992C71.9807 103.485 70.0806 104.872 68.1366 106.249C65.345 108.227 62.4558 110.175 59.5897 112.403C54.9237 115.995 51.2981 117.83 48.4833 118.649C43.8466 120 41.3689 118.656 40.0708 117.82Z" fill="black"/>
<path fill-rule="evenodd" clip-rule="evenodd" d="M47.5016 106.691C47.5382 106.518 47.708 106.407 47.8814 106.443C48.0548 106.479 48.1671 106.649 48.1305 106.821C48.1305 106.821 48.0047 108.03 47.9095 109.752C47.8753 110.351 47.8484 111.008 47.8203 111.7C47.8032 112.12 47.7886 112.553 47.7678 112.991C47.7385 113.63 47.7019 114.277 47.6945 114.92C47.6811 116.128 47.7263 117.302 47.9766 118.326C48.0304 118.494 47.9375 118.675 47.769 118.729C47.6005 118.783 47.4198 118.691 47.3648 118.523C46.9411 117.481 46.6627 116.255 46.5308 114.975C46.4477 114.175 46.4111 113.359 46.4429 112.566C46.4771 111.728 46.5833 110.919 46.703 110.185C47.0351 108.148 47.5016 106.691 47.5016 106.691Z" fill="black"/>
<path fill-rule="evenodd" clip-rule="evenodd" d="M76.3698 116.163C76.3246 114.862 75.3342 113.129 74.0911 111.416C72.0945 108.666 69.4092 105.992 68.5446 105.233C68.4115 105.117 68.3981 104.915 68.5141 104.782C68.6313 104.649 68.8341 104.635 68.9672 104.751C69.8549 105.515 72.6172 108.21 74.6773 110.99C76.0559 112.85 77.1061 114.76 77.1525 116.174C77.1538 116.239 77.1379 116.351 77.0805 116.501C76.9755 116.775 76.6983 117.292 76.2562 118.001C74.6883 120.52 70.9991 125.566 65.8129 130.739C61.777 134.765 56.835 138.864 51.2836 141.916C46.8362 144.356 39.8744 143.943 34.5832 140.108C30.4984 137.149 27.4004 132.161 27.2477 124.902C27.0462 114.23 28.4457 104.116 31.4033 95.8099C33.9006 88.7953 37.5115 83.0686 42.1458 79.3388C44.8555 77.1626 47.5921 76.1945 50.0649 76.0308C53.4964 75.8036 56.4284 77.1249 58.1282 78.9618C60.899 81.9585 64.9654 84.7249 68.5446 84.9822C71.0284 85.1609 73.2461 84.0668 74.5612 80.9232C75.0033 79.8684 74.8568 78.6641 74.6638 77.4391C74.4574 76.1228 74.1888 74.7837 74.3475 73.5515C74.4367 72.8632 74.6528 72.2063 75.0705 71.5993C76.5444 69.4617 80.0247 67.9208 84.3549 68.7378C88.0098 69.4273 92.2875 71.7982 96.4101 76.942C96.5212 77.0794 96.4992 77.2808 96.3612 77.3916C96.2233 77.5023 96.0206 77.4805 95.9094 77.3432C91.8808 72.4143 87.7472 70.1372 84.212 69.5036C80.2787 68.7988 77.1086 70.1354 75.7897 72.0854C75.4576 72.5758 75.2927 73.1064 75.2268 73.6598C75.0876 74.8142 75.3672 76.0635 75.5724 77.2935C75.8056 78.6948 75.9387 80.0718 75.4429 81.2845C73.9482 84.9407 71.3557 86.1829 68.475 85.9988C64.6626 85.7552 60.2811 82.8897 57.3064 79.7212C55.7909 78.1062 53.1813 76.9787 50.1468 77.1995C47.884 77.3643 45.3904 78.2819 42.9236 80.2907C38.4664 83.9109 35.0472 89.4738 32.6501 96.2485C29.756 104.429 28.359 114.375 28.5507 124.878C28.6594 131.659 31.5047 136.343 35.3037 139.129C40.1834 142.708 46.6189 143.184 50.7537 140.951C56.2415 137.993 61.1371 133.995 65.1437 130.068C70.3129 125.002 74.0056 120.052 75.5785 117.578C75.9179 117.046 76.1573 116.632 76.2867 116.36C76.3246 116.281 76.3588 116.19 76.3698 116.163Z" fill="black"/>
<path fill-rule="evenodd" clip-rule="evenodd" d="M87.6089 120.509C87.7653 120.705 88.0986 120.848 88.5114 120.988C89.3796 121.283 90.5983 121.424 91.8646 121.311C93.3789 121.176 94.9725 120.678 96.0935 119.552C96.1033 119.452 96.135 119.083 96.1179 118.728C96.0251 116.866 95.4072 113.032 95.1471 107.118C94.9896 103.549 94.9749 99.228 95.2619 94.1303C95.268 93.9539 95.4182 93.8164 95.5953 93.8235C95.7723 93.8305 95.9103 93.9793 95.903 94.1557C95.7699 99.7293 95.9873 104.359 96.2852 108.086C96.621 112.311 97.0741 115.376 97.3037 117.331C97.4221 118.333 97.4746 119.061 97.4405 119.521C97.405 119.969 97.2621 120.254 97.1107 120.413C95.7601 121.812 93.8283 122.474 91.9782 122.626C90.2161 122.771 88.5395 122.455 87.5369 121.959C87.0045 121.695 86.6406 121.366 86.4659 121.038C86.4183 120.948 86.3487 120.71 86.3597 120.334C86.378 119.692 86.5307 118.369 86.77 116.69C87.4722 111.753 88.8789 103.668 89.1952 100.874C89.2111 100.698 89.3686 100.569 89.5445 100.586C89.7215 100.603 89.851 100.759 89.8339 100.935C89.6092 103.741 88.4882 111.877 87.9215 116.836C87.7689 118.18 87.6529 119.287 87.615 119.985C87.604 120.19 87.6065 120.408 87.6089 120.509ZM96.1485 119.495C96.1497 119.495 96.1497 119.495 96.1497 119.494L96.1485 119.495ZM87.565 120.444C87.565 120.444 87.565 120.444 87.565 120.444Z" fill="black"/>
<path fill-rule="evenodd" clip-rule="evenodd" d="M90.6483 99.4657C90.6691 99.2905 90.8291 99.1647 91.0049 99.1849C91.1807 99.2052 91.3078 99.364 91.287 99.5393C91.287 99.5393 91.1087 102.474 90.7961 106.22C90.6789 107.625 90.5494 109.145 90.3797 110.662C90.2124 112.176 90.0023 113.686 89.8131 115.087C89.3661 118.388 88.9668 121.067 88.9509 121.688C88.9534 121.865 88.8117 122.01 88.6347 122.012C88.4576 122.015 88.3111 121.874 88.3086 121.697C88.2756 121.069 88.399 118.328 88.6542 114.966C88.7616 113.554 88.8801 112.033 89.045 110.517C89.2111 108.998 89.4199 107.486 89.6189 106.088C90.1489 102.365 90.6483 99.4657 90.6483 99.4657Z" fill="black"/>
<path fill-rule="evenodd" clip-rule="evenodd" d="M93.7993 96.0243C93.8127 95.8483 93.9666 95.7161 94.1437 95.7292C94.3207 95.7423 94.4526 95.8958 94.4404 96.0718C94.4404 96.0718 94.3671 98.7029 94.3818 102.387C94.3867 103.682 94.4025 105.105 94.4269 106.591C94.4416 107.506 94.4612 108.444 94.4782 109.389C94.5039 110.787 94.5308 112.2 94.593 113.58C94.7188 116.32 94.9532 118.92 95.4576 120.975C95.5052 121.145 95.4063 121.322 95.2354 121.37C95.0644 121.417 94.8873 121.318 94.8397 121.148C94.1791 119.086 93.7101 116.456 93.4317 113.664C93.2656 112.005 93.1545 110.292 93.1215 108.615C93.0873 106.856 93.135 105.139 93.2046 103.567C93.3975 99.2437 93.7993 96.0243 93.7993 96.0243Z" fill="black"/>
<path fill-rule="evenodd" clip-rule="evenodd" d="M108.992 114.163C108.993 114.158 108.993 114.154 108.993 114.15C108.993 113.938 108.946 113.533 108.861 112.966C108.519 110.661 107.538 105.879 106.045 100.432C104.837 96.029 103.305 91.1913 101.467 86.8837C101.396 86.7223 101.469 86.5334 101.632 86.4621C101.794 86.3908 101.983 86.464 102.055 86.6255C104.03 90.9128 105.732 95.7372 107.056 100.145C108.7 105.616 109.772 110.439 110.154 112.765C110.307 113.691 110.325 114.283 110.285 114.45C110.148 115.014 109.777 115.614 109.235 116.183C108.355 117.105 107.017 117.971 105.718 118.528C104.646 118.988 103.597 119.232 102.838 119.175C102.108 119.12 101.593 118.807 101.345 118.287C101.144 117.864 100.917 116.722 100.671 115.054C100.248 112.196 99.6925 107.712 98.7486 102.737C98.1319 99.4829 97.3577 96.0173 96.3331 92.6612C96.2794 92.4931 96.3722 92.313 96.5407 92.2591C96.7105 92.2053 96.8912 92.298 96.9449 92.4662C98.0806 95.8174 98.9782 99.2842 99.6889 102.548C100.77 107.514 101.43 112 101.909 114.86C102.154 116.336 102.33 117.354 102.515 117.727C102.543 117.785 102.604 117.808 102.671 117.83C102.804 117.873 102.965 117.881 103.145 117.874C103.931 117.842 104.985 117.461 105.992 116.921C106.796 116.491 107.568 115.955 108.147 115.386C108.559 114.98 108.881 114.569 108.992 114.163Z" fill="black"/>
<path fill-rule="evenodd" clip-rule="evenodd" d="M102.304 85.4448C102.275 85.2708 102.392 85.1057 102.567 85.0761C102.743 85.0466 102.908 85.1638 102.938 85.3378C102.938 85.3378 103.147 85.8345 103.56 86.5848C103.694 86.8281 103.854 87.089 104.024 87.379C104.122 87.546 104.227 87.7191 104.328 87.9031C104.468 88.1586 104.601 88.4303 104.76 88.707C105.024 89.1665 105.296 89.6413 105.674 90.1025C105.806 90.2212 105.814 90.4236 105.696 90.5542C105.576 90.6847 105.373 90.6943 105.241 90.5757C104.693 90.2105 104.223 89.8244 103.824 89.3965C103.526 89.0777 103.269 88.7491 103.075 88.4107C102.852 88.022 102.707 87.6301 102.601 87.273C102.279 86.1938 102.304 85.4448 102.304 85.4448Z" fill="black"/>
<path fill-rule="evenodd" clip-rule="evenodd" d="M97.2157 91.1447C97.1571 90.9784 97.2438 90.7955 97.4111 90.7363C97.5784 90.6772 97.7616 90.7641 97.8214 90.9304C97.8214 90.9304 99.1452 94.171 100.582 98.9625C101.081 100.623 101.598 102.468 102.05 104.433C102.459 106.214 102.809 108.092 103.102 110.004C103.533 112.811 103.807 115.692 103.893 118.471C103.904 118.647 103.77 118.799 103.593 118.81C103.416 118.821 103.263 118.686 103.252 118.51C103.078 116.682 102.8 114.818 102.476 112.959C102.153 111.102 101.769 109.256 101.369 107.465C101.17 106.575 100.963 105.7 100.767 104.842C100.452 103.473 100.145 102.153 99.8424 100.91C99.4968 99.4897 99.1671 98.1693 98.8582 96.9873C97.9301 93.4383 97.2157 91.1447 97.2157 91.1447Z" fill="black"/>
<path fill-rule="evenodd" clip-rule="evenodd" d="M100.773 86.7768C100.761 86.6007 100.894 86.4479 101.071 86.4356C101.248 86.4233 101.401 86.5563 101.414 86.7323C101.483 87.4061 102.198 89.7813 103.15 92.9168C103.538 94.1939 103.968 95.5936 104.402 97.0576C104.804 98.4068 105.218 99.8074 105.611 101.214C105.872 102.145 106.118 103.081 106.358 104.002C106.897 106.078 107.393 108.082 107.807 109.844C108.48 112.707 108.927 114.933 108.968 115.803C108.982 115.979 108.85 116.134 108.673 116.147C108.497 116.161 108.342 116.03 108.328 115.854C108.231 114.976 107.593 112.716 106.742 109.812C106.207 107.985 105.575 105.913 104.95 103.766C104.561 102.43 104.175 101.065 103.808 99.7176C103.428 98.3247 103.073 96.9499 102.742 95.6456C101.624 91.233 100.807 87.6324 100.773 86.7768Z" fill="black"/>
<path fill-rule="evenodd" clip-rule="evenodd" d="M73.1873 175.361C75.4269 176.373 78.7997 176.649 82.8161 176.446C87.211 176.224 92.3618 175.409 97.6604 174.281C102.057 173.347 106.553 172.189 110.804 170.973C118.877 168.662 126.066 166.118 129.976 164.338C131.158 163.8 132.032 163.34 132.519 162.981C132.582 162.934 132.67 162.888 132.728 162.847C132.587 161.425 130.54 152.616 128.187 142.744C125.018 129.459 121.276 114.264 120.667 112.442C120.254 111.204 119.711 110.719 119.065 110.664C118.201 110.589 117.255 111.171 116.447 111.552C115.39 112.051 114.281 112.534 113.132 113.001C112.042 113.444 110.914 113.873 109.758 114.288C109.592 114.349 109.408 114.264 109.346 114.098C109.285 113.932 109.37 113.748 109.537 113.688C110.679 113.263 111.793 112.824 112.871 112.372C114.002 111.897 115.092 111.407 116.132 110.902C117.049 110.456 118.14 109.837 119.126 109.91C119.999 109.975 120.843 110.525 121.419 112.189C122.048 114.009 125.973 129.197 129.265 142.484C131.804 152.728 133.955 161.85 133.999 162.899C134.008 163.107 133.927 163.392 133.639 163.686C133.219 164.115 132.135 164.753 130.512 165.499C126.57 167.312 119.326 169.924 111.175 172.257C106.894 173.483 102.362 174.629 97.9302 175.551C92.556 176.671 87.3294 177.457 82.8735 177.653C78.6104 177.84 75.0422 177.474 72.683 176.376C72.4167 176.252 72.1017 175.889 71.8636 175.24C71.3202 173.759 70.8659 170.483 70.5032 166.281C69.3516 152.908 69.0293 130.02 68.7875 126.609C68.7741 126.434 68.9072 126.28 69.0842 126.266C69.2601 126.253 69.4152 126.385 69.4286 126.562C69.6728 129.576 70.149 147.834 71.1394 161.252C71.5766 167.181 72.1078 172.158 72.7794 174.416C72.8686 174.72 72.9602 174.969 73.0554 175.158C73.0957 175.238 73.1665 175.334 73.1873 175.361ZM132.728 162.847C132.778 162.812 132.805 162.78 132.773 162.758C132.733 162.728 132.727 162.785 132.728 162.847ZM132.729 162.862C132.731 162.897 132.734 162.93 132.736 162.948C132.734 162.924 132.732 162.894 132.729 162.862ZM72.004 123.573C71.8318 123.613 71.6584 123.505 71.6181 123.333C71.579 123.161 71.6865 122.99 71.8587 122.95C72.5315 122.752 74.1044 122.333 76.3427 121.814C77.2403 121.606 78.2416 121.374 79.3382 121.163C80.281 120.981 81.2945 120.823 82.3618 120.653C83.7918 120.426 85.317 120.217 86.9142 119.963C87.0876 119.925 87.2586 120.034 87.2965 120.206C87.3343 120.379 87.2244 120.549 87.0522 120.587C85.4892 121.022 84.003 121.441 82.5938 121.79C81.5412 122.05 80.5411 122.29 79.5959 122.475C78.4968 122.69 77.476 122.841 76.5626 122.973C74.3022 123.3 72.6915 123.456 72.004 123.573ZM96.7983 118.264C96.6261 118.309 96.4502 118.206 96.405 118.036C96.3598 117.865 96.4637 117.69 96.6346 117.645C97.1035 117.429 97.5407 117.196 98.0206 116.998C98.332 116.869 98.6434 116.745 98.9682 116.657C99.2931 116.569 99.6252 116.522 99.9586 116.473C100.47 116.398 100.966 116.366 101.48 116.308C101.65 116.258 101.828 116.356 101.878 116.525C101.928 116.694 101.831 116.872 101.66 116.922C101.193 117.15 100.755 117.385 100.276 117.589C99.9647 117.722 99.6533 117.854 99.3273 117.946C99 118.037 98.6666 118.09 98.3308 118.136C97.813 118.207 97.316 118.223 96.7983 118.264Z" fill="black"/>
<path fill-rule="evenodd" clip-rule="evenodd" d="M114.704 102.592C114.431 102.831 114.163 103.054 113.901 103.259C113.175 103.824 112.501 104.272 111.876 104.635C110.297 105.553 109.073 105.932 108.211 106.299C108.053 106.378 107.86 106.313 107.781 106.154C107.703 105.996 107.768 105.804 107.927 105.726C108.719 105.281 109.844 104.763 111.292 103.738C112.156 103.125 113.141 102.339 114.224 101.247C114.415 101.063 114.636 101.004 114.874 101.034C115.048 101.055 115.282 101.152 115.504 101.402C115.735 101.664 116.041 102.199 116.337 102.918C116.669 103.726 117.013 104.777 117.319 105.871C117.779 107.525 118.143 109.27 118.28 110.411C118.309 110.585 118.192 110.75 118.017 110.78C117.842 110.81 117.676 110.693 117.646 110.519C117.372 109.302 116.714 107.399 116.06 105.683C115.585 104.44 115.106 103.305 114.73 102.639C114.721 102.624 114.713 102.608 114.704 102.592ZM114.594 102.353C114.556 102.275 114.521 102.228 114.487 102.264C114.432 102.324 114.503 102.346 114.594 102.353ZM115.128 102.216C115.131 102.212 115.135 102.209 115.139 102.205C115.135 102.208 115.131 102.212 115.128 102.216Z" fill="black"/>
<path fill-rule="evenodd" clip-rule="evenodd" d="M94.2288 78.7359C94.0872 78.8415 93.8857 78.8125 93.7794 78.6711C93.6732 78.5298 93.7025 78.3292 93.8442 78.2236C94.4205 77.7695 95.3523 76.8932 96.7505 76.5278C97.6847 76.2836 98.8228 76.2712 100.199 76.7487C101.727 77.2851 103.082 78.4238 104.361 80.1857C105.049 81.134 105.72 82.2658 106.378 83.5846C106.911 84.6496 107.429 85.8412 107.966 87.1488C108.732 89.1113 109.739 91.0642 110.728 92.9372C111.826 95.0153 112.908 96.9918 113.688 98.7448C114.201 99.8991 114.581 100.959 114.749 101.892C114.785 102.065 114.673 102.234 114.499 102.27C114.325 102.306 114.156 102.195 114.119 102.022C113.911 101.146 113.49 100.164 112.948 99.0935C112.086 97.3963 110.909 95.497 109.739 93.4799C108.652 91.6052 107.581 89.6299 106.735 87.6477C106.213 86.3689 105.695 85.2101 105.191 84.162C104.583 82.8987 103.986 81.8019 103.363 80.8775C102.291 79.2865 101.172 78.2043 99.8486 77.6742C98.7031 77.2105 97.7409 77.1663 96.9386 77.3303C95.6539 77.5929 94.7747 78.3544 94.2288 78.7359Z" fill="black"/>
<path fill-rule="evenodd" clip-rule="evenodd" d="M18.0999 190.962C18.3124 191.01 18.6616 191.082 19.028 191.127C21.3384 191.411 26.2951 191.595 32.7489 191.734C41.2481 191.918 52.3337 192.011 63.3949 192.139C74.5244 192.27 85.6296 192.441 94.058 192.706C94.323 192.714 94.4976 192.462 94.6966 192.136C95.1436 191.403 95.488 190.237 95.7761 188.876C96.598 184.997 96.9118 179.593 97.2452 177.358C97.04 177.377 96.786 177.411 96.4905 177.457C93.7136 177.88 87.6494 179.288 81.8208 179.566C77.6372 179.767 73.5768 179.373 70.872 177.696C70.7523 177.621 70.6167 177.484 70.5007 177.258C70.3676 176.999 70.2333 176.574 70.1075 175.998C69.5983 173.653 69.1563 168.6 68.7948 162.605C67.9632 148.825 67.5419 130.04 67.5908 127.89C67.5944 127.714 67.7409 127.573 67.918 127.577C68.0951 127.579 68.2367 127.725 68.2331 127.902C68.2026 130.049 68.785 148.797 69.7253 162.546C70.1295 168.47 70.5972 173.462 71.1174 175.776C71.2273 176.264 71.43 176.76 71.4606 176.834C73.4266 178.019 76.14 178.459 79.0684 178.509C85.3915 178.616 92.705 176.872 96.0289 176.312C97.0413 176.142 97.7398 176.106 98.0133 176.186C98.227 176.249 98.3564 176.366 98.4358 176.48C98.5433 176.634 98.5897 176.816 98.542 177.03C98.1171 178.954 97.835 186.718 96.5968 190.881C96.2756 191.958 95.8799 192.81 95.4281 193.321C95.0105 193.791 94.5318 194.015 94.0165 193.999C84.627 193.711 71.9124 193.574 59.5458 193.408C46.035 193.227 32.9406 193.018 25.0495 192.662C21.6559 192.51 19.2136 192.323 18.0938 192.101C17.576 191.999 17.2707 191.839 17.1596 191.724C17.0045 191.566 16.9606 191.394 16.974 191.23C17.896 180.094 19.8095 171.161 22.0833 164.041C26.7518 149.425 32.9259 142.443 35.1081 139.716C35.218 139.576 35.4195 139.553 35.5587 139.662C35.6979 139.772 35.7224 139.972 35.6125 140.111C33.4754 142.831 27.4307 149.797 22.9296 164.304C20.7571 171.311 18.9413 180.072 18.0999 190.962Z" fill="black"/>
<path fill-rule="evenodd" clip-rule="evenodd" d="M35.3597 139.913C40.3897 143.348 46.8435 143.706 51.0186 141.433C57.708 137.792 63.5146 132.616 67.912 127.896C67.8497 131.285 69.1331 176.015 71.1468 177.253C78.9304 182.045 98.2197 175.673 97.9462 176.898C97.3527 179.56 97.0145 193.445 94.0373 193.353C68.2539 192.552 17.4052 192.775 17.5236 191.273C20.1931 157.425 32.1481 143.965 35.3597 139.913Z" fill="black"/>
<path fill-rule="evenodd" clip-rule="evenodd" d="M71.932 123.261C73.4353 122.914 79.4458 121.918 86.9827 120.275C86.9754 120.525 86.9851 120.686 87.0157 120.741C87.7764 122.134 93.71 122.982 96.6298 119.954C96.8288 119.748 96.8252 119.086 96.7165 117.955C98.3296 117.532 99.955 117.086 101.569 116.615C101.698 117.293 101.815 117.771 101.93 118.007C102.778 119.76 109.034 116.745 109.642 114.292C109.656 114.239 109.657 114.137 109.647 113.988C112.004 113.127 114.245 112.206 116.289 111.227C117.861 110.475 119.95 109.098 121.043 112.316C122.136 115.533 133.274 160.521 133.367 162.924C133.46 165.327 85.5222 181.674 72.9224 175.863C70.2029 174.608 69.4714 131.374 69.1075 126.585C70.1442 125.426 71.0882 124.308 71.932 123.261Z" fill="black"/>
<path fill-rule="evenodd" clip-rule="evenodd" d="M37.1071 85.4078C37.2818 85.3823 37.4454 85.5032 37.471 85.6779C37.4967 85.8524 37.3758 86.0149 37.1999 86.0405C30.5789 87.0339 25.516 85.9624 21.629 84.0741C15.0385 80.872 11.8317 75.3013 10.1502 73.3915C7.76285 70.6791 5.16302 68.8799 3.22138 67.2318C1.9868 66.1833 1.0111 65.1849 0.476237 64.0801C-0.288205 62.5049 -0.217362 60.6976 1.3164 58.2014C2.43376 56.3838 3.91378 55.0025 5.48785 53.6013C7.51618 51.7948 9.70937 49.9526 11.4055 46.9723C12.711 44.6776 13.7196 41.7073 14.1434 37.5627C14.826 30.9265 16.3488 24.6681 19.006 19.6675C21.1076 15.7144 23.9175 12.5437 27.5638 10.5579C30.6497 8.87975 33.8967 7.95584 36.8202 7.52191C40.0403 7.04397 42.8673 7.16078 44.6612 7.50307C45.1814 7.60225 45.6222 7.72647 45.9739 7.86091C46.4465 6.77972 47.5309 4.66972 49.42 2.92169C50.944 1.51256 52.9821 0.337645 55.6296 0.0970959C63.2288 -0.588816 69.409 2.40984 74.13 7.49419C80.48 14.3331 84.174 24.9731 85.124 35.3288C85.5673 40.1949 86.9692 43.5518 88.818 46.0346C91.1467 49.1644 94.1752 50.9107 96.8471 52.5527C99.1074 53.9416 101.117 55.2648 102.319 57.203C103.146 58.5392 102.966 61.7168 100.988 65.1389C99.3614 67.9522 96.5381 70.9499 92.1371 73.192C91.9796 73.2731 91.7854 73.2117 91.7048 73.0549C91.623 72.8983 91.6853 72.7051 91.8428 72.624C95.2437 70.8551 97.6616 68.6283 99.2869 66.4042C100.898 64.1987 101.724 61.9996 101.948 60.2648C102.096 59.116 101.986 58.1832 101.635 57.626C100.484 55.7982 98.5506 54.5812 96.3989 53.2815C93.6257 51.606 90.4959 49.8097 88.0646 46.5939C86.1119 44.0104 84.6051 40.5131 84.1044 35.4247C83.114 25.3248 79.4762 14.9551 73.2435 8.3143C68.7594 3.53674 62.9235 0.706673 55.7492 1.38675C53.4315 1.60506 51.6535 2.64675 50.3224 3.88474C47.9192 6.1197 46.9582 8.9962 46.9582 8.9962C46.8886 9.20453 46.72 9.36535 46.5088 9.42588C46.2963 9.48641 46.0679 9.43888 45.8982 9.29886C45.6601 9.10328 45.135 8.95001 44.4096 8.81192C42.7183 8.49018 40.0525 8.39148 37.0168 8.84025C34.2338 9.25157 31.1394 10.123 28.1988 11.717C24.7662 13.5732 22.1334 16.5614 20.1453 20.2697C17.5382 25.1322 16.0374 31.2252 15.3438 37.6878C14.8736 42.033 13.788 45.1399 12.4033 47.5389C10.6191 50.6311 8.33801 52.5472 6.21198 54.4138C4.70753 55.7353 3.28369 57.0293 2.20907 58.7491C0.909768 60.8279 0.752237 62.3259 1.38235 63.6485C1.99781 64.9417 3.2971 66.0557 4.87238 67.3442C6.67114 68.8154 8.8277 70.4883 10.8316 72.801C12.4643 74.6853 15.5416 80.1896 21.9734 83.3804C25.7394 85.2489 30.657 86.3193 37.1071 85.4078Z" fill="black"/>
<path fill-rule="evenodd" clip-rule="evenodd" d="M74.0871 46.9851C73.9455 48.4977 72.8428 58.3397 67.5857 65.1926C64.9761 68.5948 61.3517 71.26 56.3499 71.8752C50.3968 72.6021 45.6514 70.3692 41.9806 66.6949C36.5221 61.2306 33.468 52.5416 32.3421 45.8152C31.7205 42.0239 32.4996 39.2716 34.1762 37.3353C35.9445 35.2912 38.7494 34.1472 42.0893 33.7044C44.4864 33.3895 46.5306 32.122 48.2207 30.5393C52.1101 26.8975 54.1469 21.5714 54.1469 21.5714C54.2287 21.3572 54.4266 21.2089 54.6549 21.1908C54.8845 21.1726 55.1031 21.2879 55.2179 21.4867C55.2179 21.4867 58.4503 27.1883 62.8525 31.1598C64.9932 33.0911 67.4062 34.6249 69.868 34.8168C70.5592 34.8706 71.0025 34.7174 71.3224 34.4458C71.6546 34.1638 71.8683 33.7808 72.0954 33.4204C72.3995 32.9391 72.7243 32.4925 73.2238 32.2225C74.1873 31.701 76.1887 31.8768 77.6724 33.1013C78.6945 33.9448 79.4785 35.2676 79.47 37.1587C79.459 39.6332 78.9229 41.5202 78.1914 42.947C76.8103 45.6397 74.7307 46.7079 74.0871 46.9851ZM73.678 46.46C73.678 46.46 76.0764 45.5909 77.5467 42.6251C78.2171 41.2732 78.6921 39.4893 78.6713 37.1604C78.6579 35.5696 77.9997 34.4585 77.1302 33.7598C75.9579 32.8157 74.4107 32.5944 73.6609 33.0114C73.3031 33.2103 73.0943 33.5541 72.8794 33.9037C72.6071 34.3466 72.3372 34.805 71.9354 35.154C71.4653 35.5618 70.823 35.8392 69.7984 35.7713C67.1351 35.5951 64.4828 34.0092 62.1443 31.9458C58.7275 28.93 55.975 24.9104 54.8015 23.0693C53.9821 24.8902 52.0612 28.6438 49.095 31.4585C47.2218 33.2354 44.9346 34.6331 42.2639 34.9985C39.2868 35.4021 36.7639 36.3769 35.1886 38.2026C33.7317 39.8907 33.1187 42.2996 33.6609 45.601C34.7074 52.1132 37.5893 60.5389 42.8256 65.8661C46.2339 69.3338 50.6496 71.4771 56.229 70.8504C60.9512 70.3242 64.3851 67.8311 66.8848 64.6528C72.5509 57.4465 73.4643 46.7364 73.4643 46.7364C73.4741 46.6103 73.5584 46.502 73.678 46.46Z" fill="black"/>
<path fill-rule="evenodd" clip-rule="evenodd" d="M32.6891 44.1216C32.5242 44.0571 32.4436 43.8712 32.5084 43.707C32.5731 43.5428 32.7599 43.4619 32.9248 43.5264C32.9248 43.5264 33.2386 43.4865 33.6978 43.5389C33.8541 43.5568 34.0189 43.5783 34.1765 43.6415C34.334 43.7052 34.4659 43.806 34.5929 43.8997C34.9604 44.1718 35.1717 44.4056 35.1717 44.4056C35.3365 44.4701 35.4172 44.6559 35.3524 44.8201C35.2877 44.9843 35.1009 45.0652 34.936 45.0007C34.936 45.0007 34.6222 45.0293 34.1667 44.9791C34.0091 44.9617 33.8443 44.9462 33.6843 44.8856C33.5268 44.8254 33.3913 44.729 33.2643 44.6365C32.8918 44.3635 32.6891 44.1216 32.6891 44.1216Z" fill="black"/>
<path fill-rule="evenodd" clip-rule="evenodd" d="M70.5973 35.0073C70.7121 34.8737 70.916 34.8586 71.0491 34.9739C71.1846 35.0891 71.1993 35.2912 71.0833 35.4248C71.0833 35.4248 70.5484 36.2809 69.5837 37.2832C69.2406 37.6392 68.8462 38.0143 68.3907 38.3486C67.9657 38.6601 67.4907 38.9306 66.9949 39.1646C66.2427 39.5202 65.4526 39.7694 64.6601 39.8866C64.4879 39.9319 64.312 39.8302 64.2668 39.6596C64.2217 39.4891 64.323 39.3138 64.4952 39.2686C65.1705 39.0064 65.7933 38.5968 66.4087 38.1627C66.7506 37.9212 67.0755 37.6627 67.4003 37.4173C67.6274 37.2467 67.8534 37.0851 68.0719 36.9267C68.4371 36.6623 68.7814 36.4163 69.0916 36.185C70.0002 35.5076 70.5973 35.0073 70.5973 35.0073Z" fill="black"/>
<path fill-rule="evenodd" clip-rule="evenodd" d="M45.0167 3.60589C45.0814 3.44131 45.267 3.35951 45.4331 3.4232C45.5979 3.48702 45.6798 3.67238 45.6163 3.83696C45.6163 3.83696 45.5173 4.61683 45.6456 5.63482C45.6737 5.85021 45.7127 6.07447 45.7555 6.31015C45.7811 6.45419 45.7994 6.60248 45.83 6.75345C45.891 7.05186 45.9569 7.3578 46.0876 7.6708C46.2109 7.96604 46.3428 8.26384 46.5529 8.56115C46.6774 8.68647 46.6762 8.8891 46.5504 9.01332C46.4246 9.13755 46.2207 9.1367 46.0962 9.01126C45.7225 8.74397 45.4331 8.4531 45.1803 8.14059C44.9898 7.90429 44.8445 7.65767 44.7224 7.40472C44.5807 7.11288 44.4794 6.8152 44.4293 6.52019C44.3548 6.08832 44.3731 5.67104 44.4293 5.29885C44.4794 4.96507 44.56 4.67615 44.6491 4.42758C44.836 3.90758 45.0167 3.60589 45.0167 3.60589Z" fill="black"/>
<path fill-rule="evenodd" clip-rule="evenodd" d="M60.9171 82.2104C59.7485 81.3372 58.6605 80.354 57.7177 79.3418C54.9311 76.3526 48.6568 74.8642 42.5339 79.815C40.5422 81.4264 38.7471 83.4163 37.1535 85.7243C19.4969 88.2963 13.1213 76.1084 10.4909 73.0964C4.6782 66.4421 -2.39715 65.1887 1.76332 58.4754C5.48051 52.4756 13.291 51.432 14.7429 37.6253C15.9678 25.9888 19.7863 15.5314 27.8813 11.1376C35.8652 6.80368 44.9457 7.65076 46.3244 8.78641C46.3244 8.78641 48.7984 1.37971 55.6894 0.742056C73.1714 -0.875664 82.9345 17.6664 84.6136 35.3769C86.1559 51.6383 98.1891 51.3518 101.977 57.4146C103.443 59.7605 101.39 68.0692 91.9893 72.9082C84.6099 66.9096 77.6274 68.6243 75.4305 71.8427C74.2716 73.5402 74.8651 75.6642 75.1704 77.705C75.1704 77.705 68.807 81.7937 60.9171 82.2104ZM52.2531 4.03839C58.0767 3.34069 62.6536 4.2037 66.2963 6.09783C69.1916 7.60421 71.4825 9.77146 73.3399 12.3273C74.7235 14.2307 75.8604 16.3497 76.8275 18.5732C77.7849 20.7725 78.5762 23.0726 79.2478 25.3764C80.5606 29.8819 81.4251 34.3936 82.2287 38.1447C83.0639 42.0455 83.8601 45.1304 85.008 46.5763C85.1155 46.7165 85.3182 46.7431 85.4586 46.6359C85.599 46.5287 85.6259 46.3278 85.5184 46.1877C84.4548 44.7597 83.8259 41.7504 83.1262 37.9672C82.4228 34.1701 81.6792 29.6031 80.4446 25.043C79.8023 22.6715 79.0293 20.301 78.0572 18.0457C77.0583 15.7271 75.8481 13.529 74.3828 11.5663C72.3813 8.88645 69.8963 6.64128 66.7909 5.12494C62.9638 3.25633 58.183 2.49567 52.1663 3.40475C51.9905 3.42845 51.8672 3.58975 51.8916 3.76466C51.9148 3.93945 52.0772 4.0621 52.2531 4.03839ZM73.7844 46.7618C73.7844 46.7618 79.0867 44.9077 79.0708 37.1598C79.0622 32.9715 74.9079 31.813 73.4425 32.6172C72.1566 33.3228 72.3129 35.4729 69.834 35.2943C62.1334 34.7395 54.7027 21.7795 54.7027 21.7795C54.7027 21.7795 50.3652 33.2539 42.1773 34.3517C36.0594 35.1717 31.7988 38.3757 33.0016 45.7083C34.8065 56.7086 41.811 73.0602 56.2902 71.363C71.9746 69.5245 73.7844 46.7618 73.7844 46.7618Z" fill="black"/>
</g>
<defs>
<clipPath id="clip0_2_887">
<rect width="134" height="194" fill="white"/>
</clipPath>
</defs>
</svg>
