<svg width="33" height="32" viewBox="0 0 33 32" fill="none" xmlns="http://www.w3.org/2000/svg">
<rect x="0.666687" width="32" height="32" rx="16" fill="#0C0C0C"/>
<g clip-path="url(#clip0_2_821)">
<path d="M24.3371 12.153C24.1526 11.4677 23.6123 10.9273 22.9269 10.7428C21.6749 10.4001 16.6667 10.4001 16.6667 10.4001C16.6667 10.4001 11.6584 10.4001 10.4064 10.7296C9.73423 10.9141 9.18069 11.4677 8.99617 12.153C8.66669 13.4051 8.66669 16.0014 8.66669 16.0014C8.66669 16.0014 8.66669 18.611 8.99617 19.8499C9.18069 20.5352 9.72105 21.0756 10.4064 21.2601C11.6716 21.6027 16.6667 21.6027 16.6667 21.6027C16.6667 21.6027 21.6749 21.6027 22.9269 21.2732C23.6123 21.0887 24.1526 20.5484 24.3371 19.863C24.6666 18.611 24.6666 16.0146 24.6666 16.0146C24.6666 16.0146 24.6798 13.4051 24.3371 12.153Z" fill="#FDFDFD"/>
<path d="M15.072 18.4001L19.2367 16.0015L15.072 13.6028V18.4001Z" fill="#0C0C0C"/>
</g>
<defs>
<clipPath id="clip0_2_821">
<rect width="16" height="16" fill="white" transform="translate(8.66669 8)"/>
</clipPath>
</defs>
</svg>
