<svg width="33" height="32" viewBox="0 0 33 32" fill="none" xmlns="http://www.w3.org/2000/svg">
<rect x="0.333313" width="32" height="32" rx="16" fill="#0C0C0C"/>
<g clip-path="url(#clip0_2_813)">
<path d="M16.3333 9.44184C18.4707 9.44184 18.7216 9.45137 19.5664 9.48948C20.3476 9.52441 20.77 9.65462 21.0527 9.76578C21.4274 9.91187 21.6942 10.0834 21.9737 10.3628C22.2531 10.6423 22.4278 10.9091 22.5707 11.2838C22.6787 11.5665 22.8121 11.9889 22.847 12.7701C22.8851 13.6149 22.8947 13.8658 22.8947 16.0032C22.8947 18.1405 22.8851 18.3914 22.847 19.2362C22.8121 20.0175 22.6819 20.4399 22.5707 20.7225C22.4246 21.0973 22.2531 21.364 21.9737 21.6435C21.6942 21.923 21.4274 22.0977 21.0527 22.2406C20.77 22.3486 20.3476 22.4819 19.5664 22.5169C18.7216 22.555 18.4707 22.5645 16.3333 22.5645C14.196 22.5645 13.9451 22.555 13.1003 22.5169C12.319 22.4819 11.8966 22.3517 11.614 22.2406C11.2392 22.0945 10.9725 21.923 10.693 21.6435C10.4135 21.364 10.2388 21.0973 10.0959 20.7225C9.98794 20.4399 9.85455 20.0175 9.81962 19.2362C9.78151 18.3914 9.77198 18.1405 9.77198 16.0032C9.77198 13.8658 9.78151 13.6149 9.81962 12.7701C9.85455 11.9889 9.98476 11.5665 10.0959 11.2838C10.242 10.9091 10.4135 10.6423 10.693 10.3628C10.9725 10.0834 11.2392 9.90869 11.614 9.76578C11.8966 9.6578 12.319 9.52441 13.1003 9.48948C13.9451 9.44819 14.1991 9.44184 16.3333 9.44184ZM16.3333 8C14.161 8 13.8879 8.00953 13.0336 8.04764C12.1825 8.08575 11.6013 8.22231 11.0931 8.41921C10.5659 8.62247 10.1213 8.89877 9.6767 9.34339C9.23208 9.78801 8.95896 10.2358 8.75253 10.7598C8.55562 11.268 8.41906 11.8491 8.38095 12.7035C8.34284 13.5546 8.33331 13.8277 8.33331 16C8.33331 18.1723 8.34284 18.4454 8.38095 19.2997C8.41906 20.1509 8.55562 20.732 8.75253 21.2434C8.95578 21.7705 9.23208 22.2152 9.6767 22.6598C10.1213 23.1044 10.5691 23.3775 11.0931 23.584C11.6013 23.7809 12.1825 23.9174 13.0368 23.9555C13.8911 23.9936 14.161 24.0032 16.3365 24.0032C18.512 24.0032 18.7819 23.9936 19.6362 23.9555C20.4874 23.9174 21.0685 23.7809 21.5798 23.584C22.107 23.3807 22.5517 23.1044 22.9963 22.6598C23.4409 22.2152 23.714 21.7674 23.9205 21.2434C24.1174 20.7352 24.2539 20.154 24.292 19.2997C24.3301 18.4454 24.3397 18.1755 24.3397 16C24.3397 13.8245 24.3301 13.5546 24.292 12.7003C24.2539 11.8491 24.1174 11.268 23.9205 10.7566C23.7172 10.2295 23.4409 9.78484 22.9963 9.34021C22.5517 8.89559 22.1039 8.62247 21.5798 8.41604C21.0717 8.21913 20.4905 8.08257 19.6362 8.04446C18.7787 8.00953 18.5056 8 16.3333 8Z" fill="#FDFDFD"/>
<path d="M16.3333 9.44184C18.4707 9.44184 18.7216 9.45137 19.5664 9.48948C20.3476 9.52441 20.77 9.65462 21.0527 9.76578C21.4274 9.91187 21.6942 10.0834 21.9737 10.3628C22.2531 10.6423 22.4278 10.9091 22.5707 11.2838C22.6787 11.5665 22.8121 11.9889 22.847 12.7701C22.8851 13.6149 22.8947 13.8658 22.8947 16.0032C22.8947 18.1405 22.8851 18.3914 22.847 19.2362C22.8121 20.0175 22.6819 20.4399 22.5707 20.7225C22.4246 21.0973 22.2531 21.364 21.9737 21.6435C21.6942 21.923 21.4274 22.0977 21.0527 22.2406C20.77 22.3486 20.3476 22.4819 19.5664 22.5169C18.7216 22.555 18.4707 22.5645 16.3333 22.5645C14.196 22.5645 13.9451 22.555 13.1003 22.5169C12.319 22.4819 11.8966 22.3517 11.614 22.2406C11.2392 22.0945 10.9725 21.923 10.693 21.6435C10.4135 21.364 10.2388 21.0973 10.0959 20.7225C9.98794 20.4399 9.85455 20.0175 9.81962 19.2362C9.78151 18.3914 9.77198 18.1405 9.77198 16.0032C9.77198 13.8658 9.78151 13.6149 9.81962 12.7701C9.85455 11.9889 9.98476 11.5665 10.0959 11.2838C10.242 10.9091 10.4135 10.6423 10.693 10.3628C10.9725 10.0834 11.2392 9.90869 11.614 9.76578C11.8966 9.6578 12.319 9.52441 13.1003 9.48948C13.9451 9.44819 14.1991 9.44184 16.3333 9.44184Z" fill="#FDFDFD"/>
<path d="M16.3333 11.8936C14.0658 11.8936 12.2238 13.7324 12.2238 16.0031C12.2238 18.2739 14.0626 20.1127 16.3333 20.1127C18.6041 20.1127 20.4429 18.2739 20.4429 16.0031C20.4429 13.7324 18.6041 11.8936 16.3333 11.8936ZM16.3333 18.6677C14.8597 18.6677 13.6656 17.4735 13.6656 15.9999C13.6656 14.5263 14.8597 13.3322 16.3333 13.3322C17.8069 13.3322 19.001 14.5263 19.001 15.9999C19.001 17.4735 17.8069 18.6677 16.3333 18.6677Z" fill="#0C0C0C"/>
<path d="M20.6049 12.6875C21.1346 12.6875 21.564 12.2581 21.564 11.7284C21.564 11.1987 21.1346 10.7693 20.6049 10.7693C20.0752 10.7693 19.6458 11.1987 19.6458 11.7284C19.6458 12.2581 20.0752 12.6875 20.6049 12.6875Z" fill="#0C0C0C"/>
</g>
<defs>
<clipPath id="clip0_2_813">
<rect width="16" height="16" fill="white" transform="translate(8.33331 8)"/>
</clipPath>
</defs>
</svg>
