<svg width="33" height="32" viewBox="0 0 33 32" fill="none" xmlns="http://www.w3.org/2000/svg">
<rect x="0.666656" width="32" height="32" rx="16" fill="#0C0C0C"/>
<g clip-path="url(#clip0_2_810)">
<path d="M22.7047 12.787C22.7108 12.9278 22.7108 13.0622 22.7108 13.203C22.717 17.4718 19.5807 22.3999 13.8452 22.3999C12.1536 22.3999 10.4928 21.8943 9.06665 20.9471C9.3136 20.9791 9.56056 20.9919 9.80751 20.9919C11.209 20.9919 12.5734 20.5054 13.6785 19.603C12.345 19.5774 11.1719 18.675 10.7645 17.3566C11.2337 17.4526 11.7152 17.4334 12.1721 17.299C10.7212 17.0046 9.67786 15.6798 9.67169 14.1374C9.67169 14.1246 9.67169 14.1118 9.67169 14.099C10.1039 14.3486 10.5916 14.4894 11.0855 14.5022C9.72108 13.555 9.29508 11.667 10.1224 10.1886C11.7091 12.211 14.0428 13.4334 16.5493 13.5678C16.2962 12.4478 16.642 11.2702 17.4507 10.4766C18.704 9.25421 20.6796 9.31821 21.865 10.6174C22.5627 10.4766 23.2356 10.2078 23.8468 9.83021C23.6122 10.579 23.1245 11.2126 22.4762 11.6158C23.0936 11.539 23.6987 11.3662 24.2667 11.1102C23.8468 11.763 23.3159 12.3262 22.7047 12.787Z" fill="#FDFDFD"/>
</g>
<defs>
<clipPath id="clip0_2_810">
<rect width="16" height="16" fill="white" transform="translate(8.66666 8)"/>
</clipPath>
</defs>
</svg>
