<svg width="62" height="23" viewBox="0 0 62 23" fill="none" xmlns="http://www.w3.org/2000/svg">
<g clip-path="url(#clip0_2_601)">
<path d="M15.0547 22.8594C12.9036 22.8958 10.8802 22.75 8.98438 22.4219C7.125 22.0938 5.59375 21.6745 4.39062 21.1641L8.21875 8.53125L8.76562 8.64062C11.6094 9.47917 14.0339 9.66146 16.0391 9.1875C18.0807 8.75 19.6302 7.14583 20.6875 4.375L21.6719 1.75L-0.203125 -61.1406H17.5703L30.2031 -16.2422H30.8594L43.6562 -61.1406H61.5391L37.8047 6.61719C36.6745 9.89844 35.125 12.7604 33.1562 15.2031C31.224 17.6458 28.7812 19.5234 25.8281 20.8359C22.875 22.1849 19.2839 22.8594 15.0547 22.8594Z" fill="#FDFDFD"/>
</g>
<defs>
<clipPath id="clip0_2_601">
<rect width="62" height="23" fill="white"/>
</clipPath>
</defs>
</svg>
