<svg width="60" height="65" viewBox="0 0 60 65" fill="none" xmlns="http://www.w3.org/2000/svg">
<g clip-path="url(#clip0_2_603)">
<path d="M45.9116 64.1719C37.672 64.1719 31.2189 62.5312 26.5522 59.25C21.8855 56.0052 19.0418 51.9583 18.0209 47.1094L33.6616 45.0312C34.1355 46.2708 34.8829 47.4193 35.9037 48.4766C36.9246 49.5339 38.2918 50.3724 40.0053 50.9922C41.7189 51.6484 43.8152 51.9766 46.2944 51.9766C49.9767 51.9766 53.0209 51.0833 55.4272 49.2969C57.8334 47.5469 59.0366 44.5755 59.0366 40.3828V29.1719H58.3256C57.5965 30.849 56.4845 32.4531 54.9897 33.9844C53.4949 35.5156 51.5808 36.7552 49.2475 37.7031C46.9142 38.651 44.1251 39.125 40.8803 39.125C36.2866 39.125 32.1121 38.0677 28.3569 35.9531C24.6381 33.8021 21.6485 30.5208 19.3881 26.1094C17.1642 21.6979 16.0522 16.1198 16.0522 9.375C16.0522 2.41146 17.1824 -3.38542 19.4428 -8.01562C21.7397 -12.6458 24.7657 -16.1094 28.5209 -18.4062C32.2761 -20.7396 36.3959 -21.9062 40.8803 -21.9062C44.3074 -21.9062 47.1694 -21.3229 49.4662 -20.1562C51.7996 -19.026 53.6954 -17.6042 55.1537 -15.8906C56.6121 -14.1771 57.7058 -12.4818 58.435 -10.8047H59.0912V-21.1406H75.7709V40.6562C75.7709 45.8333 74.4949 50.1719 71.9428 53.6719C69.3907 57.1719 65.8725 59.7969 61.3881 61.5469C56.9037 63.2969 51.7449 64.1719 45.9116 64.1719ZM46.2397 26.3828C50.323 26.3828 53.4767 24.8698 55.7006 21.8438C57.961 18.8177 59.0912 14.625 59.0912 9.26562C59.0912 5.69271 58.5808 2.59375 57.56 -0.03125C56.5756 -2.69271 55.1355 -4.7526 53.2397 -6.21094C51.3439 -7.70573 49.0105 -8.45312 46.2397 -8.45312C43.4689 -8.45312 41.1173 -7.6875 39.185 -6.15625C37.2892 -4.66146 35.8491 -2.58333 34.8647 0.078125C33.8803 2.73958 33.3881 5.80208 33.3881 9.26562C33.3881 12.7656 33.8803 15.8099 34.8647 18.3984C35.8491 20.9505 37.2892 22.9193 39.185 24.3047C41.1173 25.6901 43.4689 26.3828 46.2397 26.3828Z" fill="#FDFDFD"/>
</g>
<defs>
<clipPath id="clip0_2_603">
<rect width="60" height="65" fill="white"/>
</clipPath>
</defs>
</svg>
