<svg width="24" height="24" viewBox="0 0 24 24" fill="none" xmlns="http://www.w3.org/2000/svg">
<path d="M9.29288 5.63585L3.63588 11.2929C3.4484 11.4804 3.34309 11.7347 3.34309 11.9999C3.34309 12.265 3.4484 12.5193 3.63588 12.7069L9.29288 18.3639C9.48148 18.546 9.73408 18.6468 9.99628 18.6445C10.2585 18.6423 10.5093 18.5371 10.6947 18.3517C10.8801 18.1663 10.9853 17.9155 10.9876 17.6533C10.9898 17.3911 10.889 17.1385 10.7069 16.9499L6.75688 12.9999H19.9999C20.2651 12.9999 20.5194 12.8945 20.707 12.707C20.8945 12.5194 20.9999 12.2651 20.9999 11.9999C20.9999 11.7346 20.8945 11.4803 20.707 11.2927C20.5194 11.1052 20.2651 10.9999 19.9999 10.9999H6.75688L10.7069 7.04986C10.8024 6.95761 10.8786 6.84726 10.931 6.72526C10.9834 6.60326 11.011 6.47204 11.0121 6.33926C11.0133 6.20648 10.988 6.0748 10.9377 5.9519C10.8874 5.829 10.8132 5.71735 10.7193 5.62346C10.6254 5.52957 10.5137 5.45531 10.3908 5.40503C10.2679 5.35475 10.1363 5.32945 10.0035 5.3306C9.8707 5.33176 9.73948 5.35934 9.61747 5.41175C9.49547 5.46416 9.38512 5.54034 9.29288 5.63585Z" fill="#FDFDFD"/>
</svg>
