<svg width="24" height="24" viewBox="0 0 24 24" fill="none" xmlns="http://www.w3.org/2000/svg">
<path d="M14.7068 5.63585L20.3638 11.2929C20.5512 11.4804 20.6565 11.7347 20.6565 11.9999C20.6565 12.265 20.5512 12.5193 20.3638 12.7069L14.7068 18.3639C14.5182 18.546 14.2656 18.6468 14.0034 18.6445C13.7412 18.6423 13.4903 18.5371 13.3049 18.3517C13.1195 18.1663 13.0144 17.9155 13.0121 17.6533C13.0098 17.3911 13.1106 17.1385 13.2928 16.9499L17.2428 12.9999H3.99976C3.73454 12.9999 3.48019 12.8945 3.29265 12.707C3.10511 12.5194 2.99976 12.2651 2.99976 11.9999C2.99976 11.7346 3.10511 11.4803 3.29265 11.2927C3.48019 11.1052 3.73454 10.9999 3.99976 10.9999H17.2428L13.2928 7.04986C13.1972 6.95761 13.1211 6.84726 13.0687 6.72526C13.0162 6.60326 12.9887 6.47204 12.9875 6.33926C12.9864 6.20648 13.0117 6.0748 13.0619 5.9519C13.1122 5.829 13.1865 5.71735 13.2804 5.62346C13.3743 5.52957 13.4859 5.45531 13.6088 5.40503C13.7317 5.35475 13.8634 5.32945 13.9962 5.3306C14.1289 5.33176 14.2602 5.35934 14.3822 5.41175C14.5042 5.46416 14.6145 5.54034 14.7068 5.63585Z" fill="#0C0C0C"/>
</svg>
