<svg width="612" height="106" viewBox="0 0 612 106" fill="none" xmlns="http://www.w3.org/2000/svg">
<path d="M289.055 104.859C286.904 104.896 284.88 104.75 282.984 104.422C281.125 104.094 279.594 103.674 278.391 103.164L282.219 90.5312L282.766 90.6406C285.609 91.4792 288.034 91.6615 290.039 91.1875C292.081 90.75 293.63 89.1458 294.688 86.375L295.672 83.75L273.797 20.8594H291.57L304.203 65.7578H304.859L317.656 20.8594H335.539L311.805 88.6172C310.674 91.8984 309.125 94.7604 307.156 97.2031C305.224 99.6458 302.781 101.523 299.828 102.836C296.875 104.185 293.284 104.859 289.055 104.859Z" fill="#FDFDFD"/>
<path d="M610.484 38.3047L595.008 39.2344C594.607 37.3021 593.531 35.6432 591.781 34.2578C590.031 32.8359 587.68 32.125 584.727 32.125C582.102 32.125 579.896 32.6719 578.109 33.7656C576.359 34.8594 575.484 36.3177 575.484 38.1406C575.484 39.599 576.049 40.8568 577.18 41.9141C578.346 42.9349 580.333 43.737 583.141 44.3203L594.242 46.5078C600.185 47.7109 604.615 49.6615 607.531 52.3594C610.448 55.0573 611.906 58.612 611.906 63.0234C611.906 67.0703 610.74 70.6068 608.406 73.6328C606.073 76.6224 602.865 78.974 598.781 80.6875C594.698 82.3646 590.013 83.2031 584.727 83.2031C576.633 83.2031 570.18 81.5078 565.367 78.1172C560.591 74.7266 557.802 70.1328 557 64.3359L573.57 63.4609C574.117 65.9401 575.357 67.8177 577.289 69.0938C579.221 70.3698 581.701 71.0078 584.727 71.0078C587.68 71.0078 590.068 70.4245 591.891 69.2578C593.75 68.0911 594.68 66.6146 594.68 64.8281C594.68 61.8021 592.055 59.7604 586.805 58.7031L576.25 56.5156C570.307 55.3125 565.878 53.2526 562.961 50.3359C560.044 47.4193 558.586 43.6823 558.586 39.125C558.586 35.1875 559.661 31.7969 561.812 28.9531C563.964 26.1094 566.971 23.9219 570.836 22.3906C574.737 20.8594 579.294 20.0938 584.508 20.0938C592.237 20.0938 598.307 21.7344 602.719 25.0156C607.167 28.2604 609.755 32.6901 610.484 38.3047Z" fill="#FDFDFD"/>
<path d="M452.631 83.1484C448.766 83.1484 445.285 82.474 442.186 81.125C439.123 79.7396 436.717 77.6979 434.967 75C433.217 72.3021 432.342 68.9479 432.342 64.9375C432.342 61.5104 432.962 58.6667 434.201 56.4062C435.441 54.1094 437.136 52.25 439.287 50.8281C441.438 49.4062 443.881 48.3307 446.615 47.6016C449.35 46.8724 452.248 46.362 455.311 46.0703C458.847 45.7422 461.691 45.4141 463.842 45.0859C465.993 44.7578 467.561 44.2656 468.545 43.6094C469.566 42.9167 470.076 41.9323 470.076 40.6562V40.3828C470.076 37.8672 469.274 35.9167 467.67 34.5312C466.102 33.1458 463.878 32.4531 460.998 32.4531C457.972 32.4531 455.548 33.1276 453.725 34.4766C451.938 35.7891 450.753 37.4661 450.17 39.5078L434.475 38.25C435.277 34.5312 436.844 31.3229 439.178 28.625C441.511 25.8906 444.519 23.7943 448.201 22.3359C451.92 20.8411 456.222 20.0938 461.107 20.0938C464.498 20.0938 467.743 20.4948 470.842 21.2969C473.941 22.099 476.693 23.3385 479.1 25.0156C481.542 26.6562 483.475 28.7891 484.897 31.4141C486.318 34.0391 487.029 37.1562 487.029 40.7656V82H470.897V73.4688H470.459C469.475 75.401 468.162 77.0964 466.522 78.5547C464.881 79.9766 462.912 81.1068 460.615 81.9453C458.318 82.7474 455.657 83.1484 452.631 83.1484ZM457.498 71.4453C459.977 71.4453 462.165 70.9531 464.061 69.9688C465.993 68.9479 467.488 67.599 468.545 65.9219C469.639 64.2083 470.186 62.2943 470.186 60.1797V53.6719C469.675 54 468.946 54.3099 467.998 54.6016C467.087 54.8932 466.066 55.1484 464.936 55.3672C463.805 55.5859 462.675 55.7865 461.545 55.9688C460.415 56.1146 459.394 56.2604 458.482 56.4062C456.477 56.6979 454.727 57.1719 453.232 57.8281C451.738 58.4479 450.571 59.3047 449.732 60.3984C448.93 61.4557 448.529 62.7865 448.529 64.3906C448.529 66.6875 449.368 68.4375 451.045 69.6406C452.722 70.8438 454.873 71.4453 457.498 71.4453Z" fill="#FDFDFD"/>
<path d="M113.323 83.1484C109.458 83.1484 105.976 82.474 102.878 81.125C99.815 79.7396 97.4088 77.6979 95.6588 75C93.9088 72.3021 93.0338 68.9479 93.0338 64.9375C93.0338 61.5104 93.6535 58.6667 94.8931 56.4062C96.1327 54.1094 97.828 52.25 99.9791 50.8281C102.13 49.4062 104.573 48.3307 107.307 47.6016C110.042 46.8724 112.94 46.362 116.003 46.0703C119.539 45.7422 122.383 45.4141 124.534 45.0859C126.685 44.7578 128.253 44.2656 129.237 43.6094C130.258 42.9167 130.768 41.9323 130.768 40.6562V40.3828C130.768 37.8672 129.966 35.9167 128.362 34.5312C126.794 33.1458 124.57 32.4531 121.69 32.4531C118.664 32.4531 116.239 33.1276 114.417 34.4766C112.63 35.7891 111.445 37.4661 110.862 39.5078L95.1666 38.25C95.9686 34.5312 97.5364 31.3229 99.8697 28.625C102.203 25.8906 105.211 23.7943 108.893 22.3359C112.612 20.8411 116.914 20.0938 121.799 20.0938C125.19 20.0938 128.435 20.4948 131.534 21.2969C134.633 22.099 137.385 23.3385 139.792 25.0156C142.234 26.6562 144.167 28.7891 145.588 31.4141C147.01 34.0391 147.721 37.1562 147.721 40.7656V82H131.588V73.4688H131.151C130.167 75.401 128.854 77.0964 127.213 78.5547C125.573 79.9766 123.604 81.1068 121.307 81.9453C119.01 82.7474 116.349 83.1484 113.323 83.1484ZM118.19 71.4453C120.669 71.4453 122.857 70.9531 124.753 69.9688C126.685 68.9479 128.18 67.599 129.237 65.9219C130.331 64.2083 130.878 62.2943 130.878 60.1797V53.6719C130.367 54 129.638 54.3099 128.69 54.6016C127.779 54.8932 126.758 55.1484 125.628 55.3672C124.497 55.5859 123.367 55.7865 122.237 55.9688C121.107 56.1146 120.086 56.2604 119.174 56.4062C117.169 56.6979 115.419 57.1719 113.924 57.8281C112.43 58.4479 111.263 59.3047 110.424 60.3984C109.622 61.4557 109.221 62.7865 109.221 64.3906C109.221 66.6875 110.06 68.4375 111.737 69.6406C113.414 70.8438 115.565 71.4453 118.19 71.4453Z" fill="#FDFDFD"/>
<path d="M154.26 82V20.8594H170.611V31.5781H171.267C172.398 27.7865 174.275 24.9245 176.9 22.9922C179.525 21.0234 182.533 20.0391 185.924 20.0391C186.799 20.0391 187.71 20.0938 188.658 20.2031C189.642 20.276 190.517 20.4219 191.283 20.6406V35.625C190.481 35.3698 189.369 35.1693 187.947 35.0234C186.562 34.8411 185.267 34.75 184.064 34.75C181.622 34.75 179.416 35.2969 177.447 36.3906C175.478 37.4479 173.929 38.9427 172.799 40.875C171.705 42.7708 171.158 44.9583 171.158 47.4375V82H154.26Z" fill="#FDFDFD"/>
<path d="M520.912 105.172C512.672 105.172 506.219 103.531 501.552 100.25C496.886 97.0052 494.042 92.9583 493.021 88.1094L508.662 86.0312C509.136 87.2708 509.883 88.4193 510.904 89.4766C511.925 90.5339 513.292 91.3724 515.005 91.9922C516.719 92.6484 518.815 92.9766 521.294 92.9766C524.977 92.9766 528.021 92.0833 530.427 90.2969C532.833 88.5469 534.037 85.5755 534.037 81.3828V70.1719H533.326C532.596 71.849 531.484 73.4531 529.99 74.9844C528.495 76.5156 526.581 77.7552 524.247 78.7031C521.914 79.651 519.125 80.125 515.88 80.125C511.287 80.125 507.112 79.0677 503.357 76.9531C499.638 74.8021 496.649 71.5208 494.388 67.1094C492.164 62.6979 491.052 57.1198 491.052 50.375C491.052 43.4115 492.182 37.6146 494.443 32.9844C496.74 28.3542 499.766 24.8906 503.521 22.5938C507.276 20.2604 511.396 19.0938 515.88 19.0938C519.307 19.0938 522.169 19.6771 524.466 20.8438C526.8 21.974 528.695 23.3958 530.154 25.1094C531.612 26.8229 532.706 28.5182 533.435 30.1953H534.091V19.8594H550.771V81.6562C550.771 86.8333 549.495 91.1719 546.943 94.6719C544.391 98.1719 540.872 100.797 536.388 102.547C531.904 104.297 526.745 105.172 520.912 105.172ZM521.24 67.3828C525.323 67.3828 528.477 65.8698 530.701 62.8438C532.961 59.8177 534.091 55.625 534.091 50.2656C534.091 46.6927 533.581 43.5938 532.56 40.9688C531.576 38.3073 530.136 36.2474 528.24 34.7891C526.344 33.2943 524.011 32.5469 521.24 32.5469C518.469 32.5469 516.117 33.3125 514.185 34.8438C512.289 36.3385 510.849 38.4167 509.865 41.0781C508.88 43.7396 508.388 46.8021 508.388 50.2656C508.388 53.7656 508.88 56.8099 509.865 59.3984C510.849 61.9505 512.289 63.9193 514.185 65.3047C516.117 66.6901 518.469 67.3828 521.24 67.3828Z" fill="#FDFDFD"/>
<path d="M368.546 82V0.515625H401.139C407.119 0.515625 412.113 1.40885 416.124 3.19531C420.134 4.98177 423.142 7.44271 425.147 10.5781C427.189 13.7135 428.21 17.3229 428.21 21.4062C428.21 24.5781 427.553 27.3672 426.241 29.7734C424.965 32.1797 423.215 34.1484 420.991 35.6797C418.803 37.2109 416.288 38.2865 413.444 38.9062V39.7266C416.543 39.8724 419.46 40.7474 422.194 42.3516C424.928 43.9557 427.134 46.2161 428.811 49.1328C430.525 52.013 431.382 55.4583 431.382 59.4688C431.382 63.7708 430.306 67.6354 428.155 71.0625C426.04 74.4531 422.905 77.1328 418.749 79.1016C414.593 81.0339 409.452 82 403.327 82H368.546ZM385.718 67.9453H399.827C404.603 67.9453 408.085 67.0156 410.272 65.1562C412.496 63.2969 413.608 60.8359 413.608 57.7734C413.608 55.513 413.061 53.526 411.968 51.8125C410.91 50.0625 409.379 48.6953 407.374 47.7109C405.369 46.7266 402.981 46.2344 400.21 46.2344H385.718V67.9453ZM385.718 34.6406H398.514C400.884 34.6406 402.981 34.2214 404.803 33.3828C406.663 32.5443 408.121 31.3594 409.178 29.8281C410.236 28.2604 410.764 26.401 410.764 24.25C410.764 21.3333 409.725 18.9818 407.647 17.1953C405.606 15.3724 402.671 14.4609 398.843 14.4609H385.718V34.6406Z" fill="#FDFDFD"/>
<path d="M270.016 0.515625V82H253.118V0.515625H270.016Z" fill="#FDFDFD"/>
<path d="M208.322 64.3906L208.376 44.1016H210.837L230.361 20.8594H249.829L223.579 51.6484H219.478L208.322 64.3906ZM193.009 82V0.515625H209.907V82H193.009ZM231.126 82L213.189 55.4219L224.454 43.3906L250.978 82H231.126Z" fill="#FDFDFD"/>
<path d="M0.581238 0.515625H21.8547L44.2766 55.2578H45.2062L67.6828 0.515625H89.0109V82H72.1672V28.9531H71.5109L50.3469 81.6172H38.9719L17.9719 28.8438H17.3156V82H0.581238V0.515625Z" fill="#FDFDFD"/>
</svg>
